<svg width="24" height="24" viewBox="0 0 24 24" fill="none" xmlns="http://www.w3.org/2000/svg">
<path d="M2 2H22V13H20V4H4V20H13V22H2V2ZM12 7H16V9H14V14C13.9997 14.6368 13.7967 15.2569 13.4206 15.7707C13.0444 16.2844 12.5145 16.6652 11.9076 16.8578C11.3007 17.0505 10.6482 17.045 10.0446 16.8422C9.44098 16.6394 8.91755 16.2498 8.55006 15.7298C8.18256 15.2098 7.99005 14.5864 8.0004 13.9497C8.01074 13.313 8.2234 12.6961 8.60759 12.1883C8.99179 11.6806 9.5276 11.3082 10.1375 11.1251C10.7473 10.942 11.3997 10.9577 12 11.17V7ZM12 14C12 13.7348 11.8946 13.4804 11.7071 13.2929C11.5196 13.1054 11.2652 13 11 13C10.7348 13 10.4804 13.1054 10.2929 13.2929C10.1054 13.4804 10 13.7348 10 14C10 14.2652 10.1054 14.5196 10.2929 14.7071C10.4804 14.8946 10.7348 15 11 15C11.2652 15 11.5196 14.8946 11.7071 14.7071C11.8946 14.5196 12 14.2652 12 14ZM20 15V18H23V20H20V23H18V20H15V18H18V15H20Z" fill="white"/>
</svg>
