<svg width="17" height="22" viewBox="0 0 17 22" fill="none" xmlns="http://www.w3.org/2000/svg">
<path d="M16.773 5.51473L11.5764 0.230804C11.4315 0.0834822 11.2359 0 11.0307 0H0.772727C0.345312 0 0 0.351116 0 0.785714V21.2143C0 21.6489 0.345312 22 0.772727 22H16.2273C16.6547 22 17 21.6489 17 21.2143V6.0721C17 5.86339 16.9179 5.66205 16.773 5.51473ZM15.2179 6.43304H10.6733V1.81205L15.2179 6.43304ZM15.2614 20.2321H1.73864V1.76786H9.03125V7.07143C9.03125 7.34493 9.1381 7.60724 9.3283 7.80063C9.5185 7.99403 9.77647 8.10268 10.0455 8.10268H15.2614V20.2321Z" fill="#F3F3F4"/>
</svg>
