<svg width="20" height="20" viewBox="0 0 20 20" fill="none" xmlns="http://www.w3.org/2000/svg">
<path d="M7.80599 0C7.79177 0 7.77767 7.8125e-05 7.76341 0.000234375C6.68888 0.0114844 5.68041 0.438516 4.92377 1.20262C4.16662 1.9673 3.74963 2.98109 3.74963 4.0573C3.74963 4.09008 3.75002 4.12273 3.75076 4.15527C3.77517 5.18852 3.49623 6.17504 2.94408 7.00809C2.30299 7.97523 1.96881 9.10289 1.97771 10.2691C1.99521 12.5625 3.36166 14.5554 5.31677 15.4889C5.23779 15.076 5.19533 14.6534 5.19209 14.225C5.18142 12.8246 5.58302 11.47 6.35349 10.3077C6.77255 9.67543 6.98416 8.92242 6.96544 8.12996C6.96447 8.0882 6.96396 8.04629 6.96396 8.0043C6.96396 6.61723 7.50138 5.31063 8.47728 4.32508C9.34044 3.45332 10.4581 2.92234 11.664 2.80176C11.1303 1.17773 9.59154 0 7.80599 0V0Z" fill="white"/>
<path d="M17.0437 10.937C16.4976 10.1198 16.2228 9.14194 16.2489 8.10913C16.2507 8.03897 16.2507 7.96776 16.2489 7.89737C16.1928 5.71042 14.377 3.94702 12.192 3.94702C12.1778 3.94702 12.1637 3.9471 12.1494 3.94726C11.0749 3.95851 10.0664 4.38554 9.30975 5.14964C8.5526 5.91433 8.13561 6.92811 8.13561 8.00433C8.13561 8.0371 8.136 8.06976 8.13674 8.10229C8.16116 9.13561 7.88221 10.1221 7.33007 10.9551C6.68897 11.9223 6.35483 13.0499 6.3637 14.2161C6.38784 17.3831 8.98405 19.9777 12.1511 19.9998C12.165 20 12.1792 20 12.1932 20C13.743 20 15.2 19.3998 16.3004 18.3071C17.4108 17.2044 18.0224 15.7354 18.0224 14.1706C18.0223 13.0133 17.6839 11.8951 17.0437 10.937ZM12.193 17.8105C10.2764 17.8105 8.71706 16.2512 8.71706 14.3346C8.71706 12.418 10.2764 10.8587 12.193 10.8587C14.1096 10.8587 15.6689 12.418 15.6689 14.3346C15.6689 16.2512 14.1096 17.8105 12.193 17.8105Z" fill="white"/>
<path d="M12.1932 16.6386C13.4657 16.6386 14.4972 15.607 14.4972 14.3346C14.4972 13.0621 13.4657 12.0305 12.1932 12.0305C10.9207 12.0305 9.88916 13.0621 9.88916 14.3346C9.88916 15.607 10.9207 16.6386 12.1932 16.6386Z" fill="white"/>
</svg>
