<svg width="28" height="34" viewBox="0 0 28 34" fill="none" xmlns="http://www.w3.org/2000/svg">
<path d="M10.2702 0C10.246 0 10.222 0.000132813 10.1978 0.000398438C8.3711 0.0195234 6.65669 0.745477 5.3704 2.04445C4.08325 3.34442 3.37436 5.06786 3.37436 6.89742C3.37436 6.95313 3.37503 7.00865 3.37629 7.06397C3.41779 8.82048 2.94359 10.4976 2.00493 11.9137C0.915075 13.5579 0.346971 15.4749 0.362111 17.4575C0.391861 21.3563 2.71482 24.7442 6.03851 26.3312C5.90424 25.6292 5.83206 24.9108 5.82655 24.1826C5.80842 21.8018 6.49114 19.4991 7.80094 17.523C8.51334 16.4482 8.87306 15.1681 8.84126 13.8209C8.83959 13.7499 8.83873 13.6787 8.83873 13.6073C8.83873 11.2493 9.75235 9.02806 11.4114 7.35263C12.8788 5.87065 14.7788 4.96798 16.8288 4.76299C15.9216 2.00215 13.3056 0 10.2702 0V0Z" fill="#DF7F00"/>
<path d="M25.9745 18.5928C25.0462 17.2036 24.579 15.5412 24.6234 13.7854C24.6264 13.6662 24.6264 13.5451 24.6234 13.4254C24.5279 9.70762 21.4411 6.70984 17.7267 6.70984C17.7025 6.70984 17.6785 6.70997 17.6543 6.71024C15.8275 6.72936 14.1131 7.45532 12.8268 8.75429C11.5397 10.0543 10.8308 11.7777 10.8308 13.6073C10.8308 13.663 10.8314 13.7185 10.8327 13.7738C10.8742 15.5304 10.4 17.2075 9.46136 18.6237C8.3715 20.2678 7.80346 22.1848 7.81853 24.1673C7.85957 29.5512 12.2731 33.962 17.6571 33.9996C17.6808 33.9998 17.7049 33.9999 17.7286 33.9999C20.3633 33.9999 22.8403 32.9796 24.711 31.122C26.5986 29.2474 27.6383 26.7501 27.6383 24.0899C27.6382 22.1225 27.0629 20.2216 25.9745 18.5928ZM17.7283 30.2778C14.47 30.2778 11.8192 27.627 11.8192 24.3688C11.8192 21.1106 14.47 18.4598 17.7283 18.4598C20.9865 18.4598 23.6373 21.1106 23.6373 24.3688C23.6373 27.627 20.9865 30.2778 17.7283 30.2778Z" fill="#DF7F00"/>
<path d="M17.7284 28.2857C19.8916 28.2857 21.6452 26.5321 21.6452 24.3689C21.6452 22.2057 19.8916 20.452 17.7284 20.452C15.5652 20.452 13.8115 22.2057 13.8115 24.3689C13.8115 26.5321 15.5652 28.2857 17.7284 28.2857Z" fill="#DF7F00"/>
</svg>
