<svg width="34" height="34" viewBox="0 0 34 34" fill="none" xmlns="http://www.w3.org/2000/svg">
<g clip-path="url(#clip0)">
<path d="M13.2702 0C13.246 0 13.222 0.000132813 13.1978 0.000398438C11.3711 0.0195234 9.65669 0.745477 8.3704 2.04445C7.08325 3.34442 6.37436 5.06786 6.37436 6.89742C6.37436 6.95313 6.37503 7.00865 6.37629 7.06397C6.41779 8.82048 5.94359 10.4976 5.00493 11.9137C3.91508 13.5579 3.34697 15.4749 3.36211 17.4575C3.39186 21.3563 5.71482 24.7442 9.03851 26.3312C8.90424 25.6292 8.83206 24.9108 8.82655 24.1826C8.80842 21.8018 9.49114 19.4991 10.8009 17.523C11.5133 16.4482 11.8731 15.1681 11.8413 13.8209C11.8396 13.7499 11.8387 13.6787 11.8387 13.6073C11.8387 11.2493 12.7523 9.02806 14.4114 7.35263C15.8788 5.87065 17.7788 4.96798 19.8288 4.76299C18.9216 2.00215 16.3056 0 13.2702 0V0Z" fill="#677182"/>
<path d="M28.9747 18.5928C28.0464 17.2036 27.5791 15.5412 27.6236 13.7854C27.6265 13.6662 27.6265 13.5451 27.6235 13.4254C27.5281 9.70762 24.4412 6.70984 20.7268 6.70984C20.7026 6.70984 20.6787 6.70997 20.6544 6.71024C18.8276 6.72936 17.1132 7.45532 15.8269 8.75429C14.5398 10.0543 13.8309 11.7777 13.8309 13.6073C13.8309 13.663 13.8316 13.7185 13.8328 13.7738C13.8743 15.5304 13.4001 17.2075 12.4615 18.6237C11.3716 20.2678 10.8036 22.1848 10.8187 24.1673C10.8597 29.5512 15.2733 33.962 20.6572 33.9996C20.6809 33.9998 20.705 33.9999 20.7287 33.9999C23.3635 33.9999 25.8404 32.9796 27.7111 31.122C29.5987 29.2474 30.6384 26.7501 30.6384 24.0899C30.6383 22.1225 30.0631 20.2216 28.9747 18.5928ZM20.7284 30.2778C17.4702 30.2778 14.8194 27.627 14.8194 24.3688C14.8194 21.1106 17.4702 18.4598 20.7284 18.4598C23.9866 18.4598 26.6374 21.1106 26.6374 24.3688C26.6374 27.627 23.9866 30.2778 20.7284 30.2778Z" fill="#677182"/>
<path d="M20.7284 28.2857C22.8916 28.2857 24.6452 26.5321 24.6452 24.3689C24.6452 22.2057 22.8916 20.452 20.7284 20.452C18.5652 20.452 16.8115 22.2057 16.8115 24.3689C16.8115 26.5321 18.5652 28.2857 20.7284 28.2857Z" fill="#677182"/>
</g>
<defs>
<clipPath id="clip0">
<rect width="34" height="34" fill="white"/>
</clipPath>
</defs>
</svg>
