<svg width="24" height="34" viewBox="0 0 24 34" fill="none" xmlns="http://www.w3.org/2000/svg">
<path d="M22.9267 15.4616C22.8894 15.3304 22.852 15.1995 22.8147 15.0689C22.0381 12.3532 21.2413 9.56544 21.6985 5.29878C14.9115 3.715 8.90749 3.71454 2.30373 5.29735C2.76133 9.56485 1.96441 12.353 1.18771 15.0689C1.14939 15.203 1.11101 15.3374 1.07275 15.472C4.39529 16.989 8.16316 17.7902 11.9883 17.7902C15.8257 17.7901 19.5977 16.9858 22.9267 15.4616ZM11.0257 14.4016C11.0257 13.8632 11.4648 13.4241 12.0032 13.4241C12.5416 13.4241 12.9807 13.8632 12.9807 14.4016C12.9807 14.94 12.5416 15.3791 12.0032 15.3791C11.4648 15.379 11.0257 14.9399 11.0257 14.4016Z" fill="#FF950A"/>
<path d="M23.4366 17.3762C19.9291 18.9279 15.9887 19.7452 11.9881 19.7452C7.99988 19.7452 4.06401 18.9306 0.563118 17.386C0.364493 18.2187 0.197864 19.0856 0.0979004 20.0141L12.0023 26.1115L23.9022 19.9963C23.8018 19.0709 23.6349 18.2066 23.4366 17.3762Z" fill="#FF950A"/>
<path d="M0.311101 25.2504C0.717865 27.5024 1.10925 29.2447 2.77619 32.8021C2.93708 33.1455 3.28207 33.3648 3.66133 33.3648H11.0235V27.8067L0 22.1604C0.0157049 23.1135 0.109804 24.136 0.311101 25.2504Z" fill="#FF950A"/>
<path d="M12.9785 33.3647H20.3408C20.72 33.3647 21.065 33.1454 21.2259 32.802C22.8929 29.2446 23.2843 27.5024 23.691 25.2504C23.8936 24.129 23.9875 23.1009 24.0023 22.1428L12.9785 27.8078V33.3647Z" fill="#FF950A"/>
<path d="M2.02359 3.35453C8.81515 1.75159 15.0074 1.75243 21.9781 3.35701C22.0997 2.67765 22.2509 1.96377 22.4358 1.21058C22.5074 0.918965 22.441 0.610602 22.2557 0.374311C22.0704 0.138021 21.7868 0 21.4865 0H2.51559C2.21531 0 1.93171 0.138021 1.74638 0.374311C1.56111 0.610602 1.49471 0.918965 1.56626 1.21058C1.75101 1.96279 1.90206 2.6759 2.02359 3.35453Z" fill="#FF950A"/>
</svg>
