<svg width="30" height="30" viewBox="0 0 30 30" fill="none" xmlns="http://www.w3.org/2000/svg">
<g clip-path="url(#clip0_369_248)">
<path d="M14.9914 3.95462C8.45231 -1.76475 0.137967 3.26045 0.00162963 10.0729C-0.0331138 11.8091 0.468059 13.5003 1.46566 15.0594H7.93181L9.08192 13.1425C9.41587 12.5859 10.2241 12.568 10.5769 13.1228L13.0035 16.936L16.5407 9.46875C16.8492 8.81718 17.7685 8.79649 18.1088 9.42832L21.1409 15.0594H28.5172C33.9813 6.51942 23.1823 -3.20939 14.9914 3.95462Z" fill="#FF950A"/>
<path d="M19.8422 16.3547L17.3852 11.7917L13.9108 19.1265C13.6152 19.7506 12.7458 19.8048 12.3751 19.2222L9.85749 15.266L9.18295 16.3902C9.02412 16.655 8.73808 16.8169 8.42938 16.8169H2.8559C3.03061 16.9998 2.09945 16.0705 14.3715 28.279C14.7143 28.62 15.2683 28.6201 15.6111 28.279C27.6944 16.2583 26.9524 16.9994 27.1267 16.8169H20.6159C20.2926 16.817 19.9954 16.6394 19.8422 16.3547Z" fill="#FF950A"/>
</g>
<defs>
<clipPath id="clip0_369_248">
<rect width="30" height="30" fill="white"/>
</clipPath>
</defs>
</svg>
