<svg width="24" height="24" viewBox="0 0 24 24" fill="none" xmlns="http://www.w3.org/2000/svg">
<path d="M1.50623 3.01247C2.3381 3.01247 3.01247 2.3381 3.01247 1.50623C3.01247 0.674363 2.3381 0 1.50623 0C0.674363 0 0 0.674363 0 1.50623C0 2.3381 0.674363 3.01247 1.50623 3.01247Z" fill="white"/>
<path d="M0.803101 3.71567V14.5257H13.2898C13.6478 14.5257 13.994 14.6028 14.3093 14.7489V4.03203C14.3093 3.47454 13.859 3.01254 13.2898 3.01254H1.50622C1.11791 3.01254 0.803101 3.32731 0.803101 3.71567Z" fill="white"/>
<path d="M4.51868 15.932V21.0954L13.9562 17.4657C14.1673 17.3844 14.3093 17.1777 14.3093 16.9515C14.3093 16.3893 13.852 15.932 13.2898 15.932H4.51868Z" fill="white"/>
<path d="M18.8847 18.2433L23.441 13.6871C23.8839 13.2441 23.5702 12.4867 22.9438 12.4867H15.7155V16.9514C15.7155 17.7551 15.2114 18.4892 14.4612 18.778L4.87193 22.4662C4.66047 22.5474 4.51868 22.754 4.51868 22.9804C4.51868 23.5426 4.97599 23.9999 5.53816 23.9999H22.9438C23.5702 23.9999 23.8839 23.2426 23.441 22.7996L18.8847 18.2433Z" fill="white"/>
<path d="M0.803101 23.2969C0.803101 23.6852 1.11791 24 1.50622 24C1.89454 24 2.20935 23.6852 2.20935 23.2969V15.932H0.803101V23.2969Z" fill="white"/>
</svg>
