<svg width="21" height="21" viewBox="0 0 21 21" fill="none" xmlns="http://www.w3.org/2000/svg">
<path d="M1.31796 2.63591C2.04584 2.63591 2.63591 2.04584 2.63591 1.31796C2.63591 0.590069 2.04584 0 1.31796 0C0.590069 0 0 0.590069 0 1.31796C0 2.04584 0.590069 2.63591 1.31796 2.63591Z" fill="#FF950A"/>
<path d="M0.702637 3.25121V12.71H11.6285C11.9418 12.71 12.2447 12.7774 12.5206 12.9053V3.52802C12.5206 3.04022 12.1266 2.63597 11.6285 2.63597H1.31787C0.978098 2.63597 0.702637 2.91139 0.702637 3.25121Z" fill="#FF950A"/>
<path d="M3.95361 13.9405V18.4585L12.2115 15.2825C12.3961 15.2114 12.5204 15.0305 12.5204 14.8326C12.5204 14.3407 12.1203 13.9405 11.6284 13.9405H3.95361Z" fill="#FF950A"/>
<path d="M16.5239 15.9629L20.5106 11.9762C20.8982 11.5886 20.6237 10.9259 20.0756 10.9259H13.7509V14.8325C13.7509 15.5357 13.3098 16.1781 12.6533 16.4308L4.26271 19.6579C4.07769 19.729 3.95361 19.9098 3.95361 20.1079C3.95361 20.5998 4.35376 21 4.84566 21H20.0756C20.6237 21 20.8982 20.3373 20.5106 19.9497L16.5239 15.9629Z" fill="#FF950A"/>
<path d="M0.702637 20.3848C0.702637 20.7246 0.978098 21 1.31787 21C1.65764 21 1.93311 20.7246 1.93311 20.3848V13.9405H0.702637V20.3848Z" fill="#FF950A"/>
</svg>
