<svg width="22" height="22" viewBox="0 0 22 22" fill="none" xmlns="http://www.w3.org/2000/svg">
<g clip-path="url(#clip0)">
<path d="M16.1006 11.8112L13.5788 14.3331C13.3355 14.5764 12.941 14.5764 12.6977 14.3331L12.6673 14.3027C12.424 14.0594 12.424 13.6649 12.6673 13.4216L16.1006 9.98825C16.4782 9.61069 16.4782 8.99855 16.1006 8.62099C15.7231 8.24342 15.1109 8.24342 14.7334 8.62099L11.3001 12.0543C11.0567 12.2977 10.6622 12.2977 10.4189 12.0543L10.3886 12.0239C10.1452 11.7806 10.1452 11.3862 10.3886 11.1428L14.7334 6.798C15.1109 6.42043 15.1109 5.8083 14.7334 5.43073C14.3558 5.05316 13.7437 5.05316 13.3661 5.43073L9.02129 9.77556C8.77796 10.0189 8.38346 10.0189 8.14017 9.77556C7.89688 9.53223 7.89684 9.13773 8.14017 8.89444L11.5735 5.46111C11.9511 5.08354 11.9511 4.47141 11.5735 4.09384C11.1959 3.71628 10.5838 3.71628 10.2062 4.09384C9.44436 4.85577 3.25523 11.0449 2.9978 11.3023C2.81183 9.78308 2.57787 7.48313 2.57774 7.48163V7.48167C2.57774 7.11936 2.42597 6.757 2.12236 6.49825C1.31416 5.80946 0.0267266 6.35404 0 7.44996C0.37718 13.8621 -0.747484 17.295 2.20017 20.2427C4.21382 22.2563 7.93431 22.7121 9.94795 20.6984L17.4679 13.1785C17.8454 12.8009 17.8454 12.1888 17.4679 11.8112C17.0903 11.4337 16.4782 11.4337 16.1006 11.8112Z" fill="#FF950A"/>
<path d="M1.28826 4.90448C1.82537 4.90448 2.34701 5.07163 2.77971 5.378C2.67787 4.43741 2.59967 3.67085 2.59967 3.67085C2.59967 3.67042 2.59967 3.67042 2.59967 3.66999C2.59924 3.30819 2.44756 2.9464 2.1442 2.68772C1.33583 1.99842 0.0484414 2.54369 0.0219727 3.63948C0.0537695 4.18046 0.0748242 4.69995 0.0885742 5.19968C0.455527 5.00718 0.867598 4.90448 1.28826 4.90448Z" fill="#FF950A"/>
<path d="M3.9797 8.49748L9.2945 3.18224C9.67993 2.79724 10.1797 2.56865 10.7176 2.52826L11.5955 1.65041C11.9727 1.27271 11.9727 0.660838 11.5955 0.283143C11.2165 -0.0949822 10.6051 -0.0937791 10.2282 0.283143C9.61419 0.896736 5.48146 5.0299 3.76099 6.75037C3.82329 6.96135 3.85896 7.18092 3.8654 7.40521C3.88044 7.54873 3.92298 7.96381 3.9797 8.49748Z" fill="#FF950A"/>
<path d="M13.0411 4.09537C13.3002 3.96561 13.5829 3.88697 13.8773 3.86549L14.7556 2.98721C15.1328 2.60994 15.1328 1.99764 14.7556 1.61994C14.3783 1.24354 13.7658 1.24242 13.3883 1.61994L12.1216 2.88666C12.5407 3.16003 12.8796 3.58288 13.0411 4.09537Z" fill="#FF950A"/>
<path d="M21.3555 3.95312H20.0664C19.7105 3.95312 19.4219 4.2417 19.4219 4.59766C19.4219 4.95361 19.7105 5.24219 20.0664 5.24219H21.3555C21.7114 5.24219 22 4.95361 22 4.59766C22 4.2417 21.7114 3.95312 21.3555 3.95312Z" fill="#FF950A"/>
<path d="M20.4792 0.188844C20.2275 -0.0628667 19.8194 -0.0628667 19.5677 0.188844L18.2786 1.47791C18.0269 1.72962 18.0269 2.13769 18.2786 2.3894C18.5303 2.64111 18.9385 2.64111 19.1901 2.3894L20.4792 1.10034C20.7309 0.848672 20.7309 0.440555 20.4792 0.188844Z" fill="#FF950A"/>
</g>
<defs>
<clipPath id="clip0">
<rect width="22" height="22" fill="white"/>
</clipPath>
</defs>
</svg>
