<svg width="16" height="16" viewBox="0 0 16 16" fill="none" xmlns="http://www.w3.org/2000/svg">
<g clip-path="url(#clip0)">
<path d="M13.4043 11.1901V12.9874C13.4043 13.3812 13.1142 13.7516 12.6 14.0771C12.5269 14.1219 12.4491 14.1691 12.3642 14.2115C12.3642 14.2115 12.3618 14.2115 12.3618 14.2139C12.2887 14.254 12.2109 14.2917 12.1283 14.3318C11.8523 14.4616 11.5339 14.5819 11.1848 14.688C11.107 14.7116 11.0291 14.7351 10.949 14.7587H10.9466C10.8711 14.78 10.7933 14.8012 10.7131 14.8224C10.4159 14.8979 10.1022 14.9663 9.76964 15.0229C9.69181 15.0371 9.61398 15.0512 9.53379 15.063H9.53143C9.4536 15.0748 9.37813 15.0889 9.29794 15.0984C8.99369 15.1432 8.67997 15.1786 8.35446 15.2069C8.27663 15.2139 8.19876 15.221 8.11861 15.2258H8.11625C8.03842 15.2328 7.96295 15.2376 7.88276 15.2423C7.57615 15.2611 7.26007 15.2729 6.93928 15.2753C6.86145 15.2777 6.78362 15.2777 6.70343 15.2777H6.70107C6.62088 15.2777 6.54541 15.2777 6.46757 15.2753C6.14678 15.2729 5.83074 15.2611 5.5241 15.2423C5.44391 15.2376 5.36608 15.2329 5.28824 15.2258H5.28589C5.2057 15.221 5.13022 15.2139 5.05239 15.2069C4.72689 15.1786 4.4132 15.1432 4.10891 15.0984C4.02873 15.089 3.95089 15.0748 3.87306 15.063H3.8707C3.79052 15.0512 3.71504 15.0371 3.63721 15.0229C3.30463 14.9663 2.99095 14.8979 2.69373 14.8224C2.61354 14.8012 2.53335 14.78 2.45788 14.7587H2.45552C2.37533 14.7351 2.29986 14.7116 2.22203 14.688C1.87295 14.5819 1.55451 14.4616 1.27855 14.3318C1.196 14.2941 1.11817 14.254 1.0427 14.2115C1.0427 14.2115 1.04034 14.2115 1.04034 14.2092C0.957793 14.1691 0.879962 14.1243 0.806845 14.0771C0.292466 13.7539 0 13.3812 0 12.9874V11.1901H13.4043Z" fill="#F6C358"/>
<path d="M13.4043 11.1901C13.4043 11.584 13.1142 11.9543 12.6 12.2751C12.5245 12.3246 12.4467 12.3718 12.3618 12.4143C12.2886 12.4567 12.2108 12.4944 12.1283 12.5345C11.8523 12.6643 11.5339 12.7822 11.1848 12.8907C11.107 12.9143 11.0291 12.9379 10.9489 12.9614H10.9466C10.8711 12.9827 10.7933 13.0039 10.7131 13.0251C10.4159 13.1006 10.1022 13.169 9.76961 13.2256C9.69178 13.2398 9.61395 13.2539 9.53376 13.2657H9.5314C9.45357 13.2775 9.37809 13.2917 9.2979 13.3011C8.99365 13.3459 8.67993 13.3813 8.35443 13.4096C8.2766 13.4167 8.19873 13.4238 8.11858 13.4285H8.11622C8.03839 13.4355 7.96291 13.4403 7.88272 13.445C7.57611 13.4639 7.26004 13.4757 6.93925 13.478C6.86141 13.4804 6.78358 13.4804 6.70339 13.4804H6.70104C6.62085 13.4804 6.54537 13.4804 6.46754 13.478C6.14675 13.4757 5.83071 13.4639 5.52406 13.445C5.44387 13.4403 5.36604 13.4355 5.28821 13.4285H5.28585C5.20566 13.4238 5.13019 13.4167 5.05236 13.4096C4.72685 13.3813 4.41317 13.3459 4.10888 13.3011C4.02869 13.2917 3.95086 13.2775 3.87303 13.2657H3.87067C3.79048 13.2539 3.71501 13.2398 3.63718 13.2256C3.3046 13.169 2.99091 13.1006 2.6937 13.0251C2.61351 13.0039 2.53332 12.9827 2.45785 12.9614H2.45549C2.3753 12.9379 2.29982 12.9143 2.22199 12.8907C1.87291 12.7845 1.55448 12.6643 1.27852 12.5345C1.19597 12.4968 1.11814 12.4567 1.04266 12.4143C1.04266 12.4143 1.04031 12.4143 1.04031 12.4119C0.957759 12.3718 0.879928 12.327 0.806811 12.2798C0.292466 11.9566 0 11.584 0 11.1901C0 9.92584 3.00256 8.89978 6.70332 8.89978C10.4041 8.89978 13.4043 9.92584 13.4043 11.1901Z" fill="#FCD462"/>
<path d="M6.68288 12.8403C6.61612 12.8403 6.55267 12.8402 6.48724 12.8382C6.17858 12.8358 5.87286 12.8251 5.56338 12.8061C5.48797 12.8017 5.4167 12.7974 5.34546 12.791L5.31694 12.7884H5.3058C5.24266 12.7844 5.18245 12.7787 5.12078 12.7731C4.7811 12.7435 4.48484 12.7095 4.20215 12.6679C4.13706 12.66 4.09182 12.6525 4.04693 12.6452L3.91972 12.6256C3.87234 12.6179 3.7519 12.5958 3.7519 12.5958C3.44785 12.5442 3.15555 12.4821 2.85106 12.4048C2.78054 12.386 2.70367 12.3658 2.63116 12.3453L2.4073 12.278C2.14251 12.1975 1.89846 12.1089 1.68024 12.0138V12.0119L1.32514 11.8387L1.21034 11.7742H1.20566C1.18848 11.7638 1.17109 11.7531 1.1538 11.742C0.772977 11.5025 0.640137 11.2956 0.640137 11.19C0.640137 10.6083 2.94211 9.53979 6.70345 9.53979C10.4633 9.53979 12.7644 10.6082 12.7644 11.19C12.7644 11.2953 12.6326 11.5004 12.2613 11.732C12.1831 11.7831 12.128 11.8155 12.0754 11.8419L12.0403 11.8608C11.9821 11.8947 11.9198 11.9243 11.8543 11.9562C11.6207 12.0659 11.3309 12.175 10.9949 12.2795L10.7733 12.3453C10.7008 12.3656 10.6262 12.386 10.5492 12.4065C10.2512 12.482 9.95909 12.5441 9.66242 12.5946C9.59928 12.606 9.54096 12.6167 9.48243 12.6261L9.35284 12.6461C9.31033 12.653 9.26793 12.6602 9.22369 12.6654C8.92182 12.7095 8.62556 12.7436 8.299 12.772C8.23138 12.7781 8.16578 12.7841 8.09878 12.7885L8.05908 12.7911C7.98795 12.7974 7.91876 12.8017 7.84544 12.806C7.53408 12.8251 7.22835 12.8359 6.93473 12.8379C6.85484 12.8402 6.78784 12.8403 6.72016 12.8403C6.71466 12.8403 6.68893 12.8403 6.68288 12.8403Z" fill="#F6C358"/>
<path d="M1.27835 12.5345V14.3318C1.1958 14.2941 1.11797 14.254 1.04249 14.2115C1.04249 14.2115 1.04014 14.2115 1.04014 14.2091C0.957589 14.1691 0.879757 14.1243 0.806641 14.0771V12.2798C0.879757 12.3269 0.957589 12.3718 1.04014 12.4119C1.04014 12.4142 1.04249 12.4142 1.04249 12.4142C1.11797 12.4567 1.1958 12.4968 1.27835 12.5345Z" fill="#DC8744"/>
<path d="M2.69363 13.025V14.8224C2.61344 14.8011 2.53325 14.7799 2.45778 14.7587H2.45542C2.37523 14.7351 2.29976 14.7115 2.22192 14.6879V12.8906C2.29976 12.9142 2.37523 12.9378 2.45542 12.9614H2.45778C2.53325 12.9826 2.61344 13.0039 2.69363 13.025Z" fill="#DC8744"/>
<path d="M4.10867 13.3011V15.0984C4.02848 15.0889 3.95065 15.0748 3.87282 15.063H3.87046C3.79027 15.0512 3.71479 15.037 3.63696 15.0229V13.2256C3.71479 13.2398 3.79027 13.2539 3.87046 13.2657H3.87282C3.95065 13.2775 4.02848 13.2916 4.10867 13.3011Z" fill="#DC8744"/>
<path d="M5.52395 13.4449V15.2422C5.44376 15.2375 5.36593 15.2328 5.2881 15.2257H5.28574C5.20555 15.221 5.13008 15.2139 5.05225 15.2068V13.4095C5.13008 13.4166 5.20555 13.4237 5.28574 13.4284H5.2881C5.36593 13.4354 5.44373 13.4402 5.52395 13.4449Z" fill="#DC8744"/>
<path d="M6.93923 13.4779V15.2752C6.8614 15.2776 6.78357 15.2776 6.70338 15.2776H6.70102C6.62084 15.2776 6.54536 15.2776 6.46753 15.2752V13.4779C6.54536 13.4803 6.62084 13.4803 6.70102 13.4803H6.70338C6.78357 13.4803 6.8614 13.4803 6.93923 13.4779Z" fill="#DC8744"/>
<path d="M8.35452 13.4095V15.2068C8.27669 15.2139 8.19882 15.221 8.11867 15.2257H8.11631C8.03848 15.2328 7.963 15.2375 7.88281 15.2422V13.4449C7.963 13.4402 8.03848 13.4355 8.11631 13.4284H8.11867C8.19882 13.4237 8.27666 13.4166 8.35452 13.4095Z" fill="#DC8744"/>
<path d="M9.76956 13.2256V15.0229C9.69172 15.037 9.61389 15.0512 9.5337 15.063H9.53135C9.45352 15.0748 9.37804 15.0889 9.29785 15.0984V13.3011C9.37804 13.2916 9.45352 13.2775 9.53135 13.2657H9.5337C9.61389 13.2539 9.69172 13.2397 9.76956 13.2256Z" fill="#DC8744"/>
<path d="M11.1846 12.8906V14.6879C11.1068 14.7115 11.0289 14.7351 10.9487 14.7587H10.9464C10.8709 14.7799 10.7931 14.8011 10.7129 14.8224V13.025C10.7931 13.0039 10.8709 12.9826 10.9464 12.9614H10.9487C11.0289 12.9378 11.1067 12.9142 11.1846 12.8906Z" fill="#DC8744"/>
<path d="M12.5999 12.275V14.077C12.5268 14.1219 12.4489 14.169 12.364 14.2115C12.364 14.2115 12.3617 14.2115 12.3617 14.2138C12.2886 14.254 12.2107 14.2917 12.1282 14.3318V12.5345C12.2107 12.4944 12.2886 12.4567 12.3617 12.4142C12.4466 12.3717 12.5244 12.3245 12.5999 12.275Z" fill="#DC8744"/>
<path d="M16.0001 8.46423V10.2615C16.0001 10.6554 15.71 11.0257 15.1958 11.3512C15.1227 11.3961 15.0448 11.4432 14.9599 11.4857C14.9599 11.4857 14.9576 11.4857 14.9576 11.488C14.8845 11.5282 14.8066 11.5659 14.7241 11.606C14.4481 11.7357 14.1297 11.856 13.7806 11.9621C13.7028 11.9857 13.6249 12.0093 13.5448 12.0329H13.5424C13.4669 12.0541 13.3891 12.0753 13.3089 12.0966C13.0117 12.1721 12.698 12.2404 12.3654 12.2971C12.2876 12.3112 12.2098 12.3254 12.1296 12.3372H12.1272C12.0494 12.349 11.9739 12.3631 11.8937 12.3725C11.5895 12.4173 11.2757 12.4528 10.9502 12.481C10.8724 12.4881 10.7946 12.4952 10.7144 12.4999H10.712C10.6342 12.507 10.5587 12.5117 10.4785 12.5165C10.1719 12.5353 9.85585 12.5471 9.53506 12.5495C9.45722 12.5518 9.37939 12.5518 9.2992 12.5518H9.29685C9.21666 12.5518 9.14118 12.5518 9.06335 12.5495C8.74256 12.5471 8.42652 12.5353 8.11987 12.5165C8.03968 12.5117 7.96185 12.507 7.88402 12.4999H7.88166C7.80147 12.4952 7.726 12.4881 7.64817 12.481C7.32266 12.4527 7.00898 12.4173 6.70469 12.3725C6.6245 12.3631 6.54667 12.349 6.46884 12.3372H6.46648C6.38629 12.3254 6.31082 12.3112 6.23299 12.2971C5.90041 12.2404 5.58672 12.1721 5.28951 12.0966C5.20932 12.0753 5.12913 12.0541 5.05366 12.0329H5.0513C4.97111 12.0093 4.89564 11.9857 4.8178 11.9621C4.46872 11.856 4.15029 11.7357 3.87433 11.606C3.79178 11.5683 3.71395 11.5282 3.63847 11.4857C3.63847 11.4857 3.63612 11.4857 3.63612 11.4833C3.55357 11.4432 3.47574 11.3985 3.40262 11.3513C2.88845 11.0281 2.59595 10.6554 2.59595 10.2616V8.46427H16.0001V8.46423Z" fill="#F6C358"/>
<path d="M15.9998 8.46433C15.9998 8.85824 15.7097 9.22854 15.1956 9.54933C15.1201 9.59883 15.0423 9.64602 14.9573 9.68852C14.8842 9.73096 14.8064 9.76868 14.7238 9.80879C14.4479 9.93852 14.1294 10.0565 13.7803 10.1649C13.7025 10.1885 13.6247 10.2121 13.5445 10.2357H13.5421C13.4667 10.257 13.3888 10.2782 13.3086 10.2994C13.0115 10.3749 12.6977 10.4433 12.3652 10.4999C12.2873 10.5141 12.2095 10.5282 12.1293 10.54H12.127C12.0491 10.5518 11.9737 10.566 11.8935 10.5754C11.5892 10.6202 11.2755 10.6556 10.95 10.6839C10.8722 10.691 10.7943 10.698 10.7141 10.7028H10.7118C10.6339 10.7098 10.5585 10.7145 10.4783 10.7193C10.1717 10.7382 9.85559 10.7499 9.5348 10.7523C9.45697 10.7547 9.37914 10.7547 9.29895 10.7547H9.2966C9.21641 10.7547 9.14093 10.7547 9.0631 10.7523C8.74231 10.75 8.42627 10.7382 8.11962 10.7193C8.03943 10.7145 7.9616 10.7098 7.88377 10.7028H7.88141C7.80122 10.698 7.72575 10.691 7.64792 10.6839C7.32241 10.6556 7.00873 10.6202 6.70444 10.5754C6.62425 10.566 6.54642 10.5518 6.46859 10.54H6.46623C6.38604 10.5282 6.31057 10.5141 6.23274 10.4999C5.90016 10.4433 5.58648 10.3749 5.28926 10.2994C5.20907 10.2782 5.12888 10.257 5.05341 10.2357H5.05105C4.97086 10.2122 4.89539 10.1885 4.81756 10.1649C4.46848 10.0588 4.15004 9.93852 3.87408 9.80879C3.79153 9.77103 3.7137 9.73096 3.63823 9.68852C3.63823 9.68852 3.63587 9.68852 3.63587 9.68616C3.55332 9.64602 3.47549 9.60123 3.40238 9.55408C2.8882 9.23093 2.5957 8.85827 2.5957 8.46436C2.5957 7.20013 5.59826 6.17407 9.29902 6.17407C12.9998 6.17407 15.9998 7.20006 15.9998 8.46433Z" fill="#FCD462"/>
<path d="M9.27793 10.1145C9.21138 10.1145 9.14793 10.1144 9.08274 10.1124C8.77213 10.11 8.46647 10.0993 8.15908 10.0803C8.08377 10.0758 8.01271 10.0717 7.94178 10.0652L7.91281 10.0626H7.90091C7.8403 10.0588 7.78236 10.0534 7.72321 10.048C7.37499 10.0176 7.07873 9.98356 6.79781 9.94209C6.73248 9.93416 6.68728 9.92668 6.64228 9.91937L6.51508 9.89979C6.46622 9.89186 6.34705 9.8701 6.34705 9.8701C6.04174 9.81803 5.74954 9.75595 5.44672 9.67893C5.376 9.66018 5.29912 9.63988 5.22683 9.61945L5.00317 9.55238C4.73736 9.47154 4.49327 9.38281 4.27566 9.288V9.28551L3.91879 9.11208L3.80567 9.04842H3.80119C3.7839 9.03811 3.76651 9.02728 3.74902 9.01604C3.3684 8.77687 3.2356 8.56999 3.2356 8.46428C3.2356 7.88252 5.53757 6.81396 9.29891 6.81396C13.0587 6.81396 15.3598 7.88249 15.3598 8.46428C15.3598 8.56948 15.2281 8.77458 14.8568 9.00616C14.778 9.05762 14.7229 9.09001 14.6709 9.11618L14.6363 9.13483C14.578 9.16869 14.5155 9.19838 14.4498 9.23026C14.216 9.34028 13.9264 9.44934 13.5905 9.55368C13.5291 9.57223 13.3688 9.61952 13.3688 9.61952C13.2963 9.63985 13.2216 9.66025 13.1446 9.68068C12.8482 9.75598 12.556 9.81806 12.2577 9.8689C12.1949 9.88035 12.1367 9.89087 12.0783 9.90016L11.9478 9.92036C11.9055 9.92733 11.8632 9.93443 11.8191 9.93963C11.5188 9.9836 11.2227 10.0177 10.8945 10.0462C10.8264 10.0524 10.7612 10.0584 10.6946 10.0627L10.6537 10.0653C10.5828 10.0717 10.5139 10.0759 10.4409 10.0802C10.1314 10.0993 9.82579 10.11 9.53018 10.1121C9.4503 10.1144 9.3833 10.1145 9.31562 10.1145C9.31012 10.1145 9.28405 10.1145 9.27793 10.1145Z" fill="#F6C358"/>
<path d="M3.87405 9.80867V11.606C3.7915 11.5682 3.71367 11.5281 3.6382 11.4857C3.6382 11.4857 3.63584 11.4857 3.63584 11.4833C3.55329 11.4432 3.47546 11.3984 3.40234 11.3513V9.55396C3.47546 9.60111 3.55329 9.64593 3.63584 9.68604C3.63584 9.6884 3.6382 9.6884 3.6382 9.6884C3.71367 9.73084 3.7915 9.77091 3.87405 9.80867Z" fill="#DC8744"/>
<path d="M5.28933 10.2993V12.0967C5.20914 12.0754 5.12895 12.0542 5.05348 12.033H5.05112C4.97093 12.0094 4.89546 11.9858 4.81763 11.9622V10.1649C4.89546 10.1885 4.97093 10.2121 5.05112 10.2357H5.05348C5.12895 10.2569 5.20914 10.2781 5.28933 10.2993Z" fill="#DC8744"/>
<path d="M6.70437 10.5752V12.3725C6.62418 12.3631 6.54635 12.349 6.46852 12.3372H6.46616C6.38597 12.3253 6.3105 12.3112 6.23267 12.2971V10.4998C6.3105 10.5139 6.38597 10.528 6.46616 10.5398H6.46852C6.54635 10.5517 6.62418 10.5658 6.70437 10.5752Z" fill="#DC8744"/>
<path d="M8.11966 10.7191V12.5164C8.03947 12.5117 7.96164 12.507 7.88381 12.4999H7.88145C7.80126 12.4952 7.72578 12.4881 7.64795 12.481V10.6837C7.72578 10.6908 7.80126 10.6979 7.88145 10.7026H7.88381C7.96164 10.7096 8.03947 10.7144 8.11966 10.7191Z" fill="#DC8744"/>
<path d="M9.53494 10.7521V12.5494C9.45711 12.5517 9.37927 12.5517 9.29908 12.5517H9.29673C9.21654 12.5517 9.14106 12.5517 9.06323 12.5494V10.7521C9.14106 10.7544 9.21654 10.7544 9.29673 10.7544H9.29908C9.37927 10.7544 9.45711 10.7544 9.53494 10.7521Z" fill="#DC8744"/>
<path d="M10.9502 10.6837V12.481C10.8724 12.4881 10.7946 12.4952 10.7144 12.4999H10.712C10.6342 12.5069 10.5587 12.5117 10.4785 12.5164V10.7191C10.5587 10.7144 10.6342 10.7096 10.712 10.7026H10.7144C10.7945 10.6979 10.8724 10.6908 10.9502 10.6837Z" fill="#DC8744"/>
<path d="M12.3653 10.4998V12.2971C12.2874 12.3112 12.2096 12.3253 12.1294 12.3372H12.127C12.0492 12.349 11.9737 12.3631 11.8936 12.3725V10.5752C11.9737 10.5658 12.0492 10.5517 12.127 10.5398H12.1294C12.2096 10.528 12.2874 10.5139 12.3653 10.4998Z" fill="#DC8744"/>
<path d="M13.7805 10.1648V11.9621C13.7027 11.9857 13.6249 12.0092 13.5447 12.0329H13.5423C13.4669 12.0541 13.389 12.0753 13.3088 12.0965V10.2992C13.389 10.278 13.4669 10.2568 13.5423 10.2355H13.5447C13.6248 10.212 13.7027 10.1884 13.7805 10.1648Z" fill="#DC8744"/>
<path d="M15.1956 9.54919V11.3512C15.1225 11.396 15.0446 11.4432 14.9597 11.4857C14.9597 11.4857 14.9574 11.4857 14.9574 11.488C14.8843 11.5281 14.8064 11.5659 14.7239 11.606V9.80866C14.8064 9.76854 14.8843 9.73082 14.9574 9.68839C15.0423 9.64589 15.1201 9.59874 15.1956 9.54919Z" fill="#DC8744"/>
<path d="M13.4043 5.7384V7.53571C13.4043 7.92958 13.1142 8.29992 12.6 8.62542C12.5269 8.67025 12.4491 8.7174 12.3642 8.75987C12.3642 8.75987 12.3618 8.75987 12.3618 8.76222C12.2887 8.80234 12.2109 8.84009 12.1283 8.88017C11.8523 9.0099 11.5339 9.1302 11.1848 9.23632C11.107 9.25993 11.0291 9.28347 10.949 9.30708H10.9466C10.8711 9.3283 10.7933 9.34952 10.7131 9.37077C10.4159 9.44624 10.1022 9.51461 9.76964 9.57126C9.69181 9.5854 9.61398 9.59955 9.53379 9.61137H9.53143C9.4536 9.62316 9.37813 9.63727 9.29794 9.64673C8.99369 9.69152 8.67997 9.72696 8.35446 9.75521C8.27663 9.76228 8.19876 9.76939 8.11861 9.77411H8.11625C8.03842 9.78118 7.96295 9.78593 7.88276 9.79064C7.57615 9.80947 7.26007 9.82129 6.93928 9.82365C6.86145 9.82601 6.78362 9.82601 6.70343 9.82601H6.70107C6.62088 9.82601 6.54541 9.82601 6.46757 9.82365C6.14678 9.82129 5.83074 9.80947 5.5241 9.79064C5.44391 9.78593 5.36608 9.78121 5.28824 9.77411H5.28589C5.2057 9.76939 5.13022 9.76228 5.05239 9.75521C4.72689 9.72692 4.4132 9.69152 4.10891 9.64673C4.02873 9.6373 3.95089 9.62316 3.87306 9.61137H3.8707C3.79052 9.59958 3.71504 9.5854 3.63721 9.57126C3.30463 9.51461 2.99095 9.44624 2.69373 9.37077C2.61354 9.34952 2.53335 9.3283 2.45788 9.30708H2.45552C2.37533 9.28347 2.29986 9.25993 2.22203 9.23632C1.87295 9.1302 1.55451 9.0099 1.27855 8.88017C1.196 8.84245 1.11817 8.80234 1.0427 8.75987C1.0427 8.75987 1.04034 8.75987 1.04034 8.75751C0.957793 8.71743 0.879962 8.67264 0.806845 8.62546C0.292466 8.30227 0 7.92958 0 7.53571V5.7384H13.4043Z" fill="#F6C358"/>
<path d="M13.4043 5.73841C13.4043 6.13232 13.1142 6.50262 12.6 6.82341C12.5245 6.87292 12.4467 6.9201 12.3618 6.9626C12.2886 7.00504 12.2108 7.04276 12.1283 7.08287C11.8523 7.2126 11.5339 7.33054 11.1848 7.43902C11.107 7.4626 11.0291 7.48621 10.9489 7.50975H10.9466C10.8711 7.531 10.7933 7.55225 10.7131 7.57343C10.4159 7.64894 10.1022 7.71734 9.76961 7.77396C9.69178 7.78814 9.61395 7.80225 9.53376 7.81404H9.5314C9.45357 7.82586 9.37809 7.84 9.2979 7.84943C8.99365 7.89426 8.67993 7.92962 8.35443 7.95795C8.2766 7.96502 8.19873 7.97209 8.11858 7.97681H8.11622C8.03839 7.98384 7.96291 7.98859 7.88272 7.99331C7.57611 8.0122 7.26004 8.02399 6.93925 8.02635C6.86141 8.02871 6.78358 8.02871 6.70339 8.02871H6.70104C6.62085 8.02871 6.54537 8.02871 6.46754 8.02635C6.14675 8.02402 5.83071 8.0122 5.52406 7.99331C5.44387 7.98859 5.36604 7.98388 5.28821 7.97681H5.28585C5.20566 7.97209 5.13019 7.96502 5.05236 7.95795C4.72685 7.92962 4.41317 7.89426 4.10888 7.84943C4.02869 7.84 3.95086 7.82586 3.87303 7.81404H3.87067C3.79048 7.80225 3.71501 7.78814 3.63718 7.77396C3.3046 7.71734 2.99091 7.64894 2.6937 7.57343C2.61351 7.55225 2.53332 7.531 2.45785 7.50975H2.45549C2.3753 7.48621 2.29982 7.4626 2.22199 7.43902C1.87291 7.33287 1.55448 7.2126 1.27852 7.08287C1.19597 7.04512 1.11814 7.00504 1.04266 6.9626C1.04266 6.9626 1.04031 6.9626 1.04031 6.96025C0.957759 6.9201 0.879928 6.87531 0.806811 6.82816C0.292466 6.50498 0 6.13232 0 5.73841C0 4.47418 3.00256 3.44812 6.70332 3.44812C10.4041 3.44812 13.4043 4.47418 13.4043 5.73841Z" fill="#FCD462"/>
<path d="M6.68302 7.38863C6.61584 7.38863 6.55199 7.38852 6.48615 7.38664C6.17656 7.38415 5.87084 7.37342 5.56313 7.35456C5.48855 7.35009 5.41731 7.34592 5.34604 7.33936L5.31707 7.33676H5.30518C5.24457 7.3329 5.18662 7.3275 5.12748 7.32217C4.77925 7.29176 4.48299 7.2577 4.20207 7.21622C4.13739 7.20829 4.09281 7.20102 4.04843 7.19384L3.91948 7.17406C3.87209 7.16634 3.75165 7.14427 3.75165 7.14427C3.44716 7.0925 3.155 7.03042 2.85102 6.9531C2.77989 6.93435 2.70322 6.91405 2.63092 6.89372L2.40781 6.82655C2.14199 6.74571 1.89781 6.65709 1.67999 6.56217V6.55968L1.32282 6.38604L1.20979 6.32259H1.20552C1.18823 6.31228 1.17094 6.30155 1.15355 6.29041C0.772732 6.05094 0.639893 5.84406 0.639893 5.73845C0.639893 5.15669 2.94187 4.08813 6.70321 4.08813C10.463 4.08813 12.7641 5.15666 12.7641 5.73845C12.7641 5.84365 12.6323 6.04875 12.2611 6.28054C12.1824 6.33179 12.1271 6.36428 12.0752 6.39031L12.0406 6.40897C11.9823 6.44283 11.9198 6.47252 11.8541 6.5044C11.6203 6.61441 11.3307 6.72347 10.9948 6.82782L10.7731 6.89376C10.7008 6.91409 10.6264 6.93438 10.5498 6.95457C10.2514 7.03042 9.95922 7.0925 9.66214 7.143C9.59767 7.15465 9.53808 7.16562 9.47839 7.17509L9.35099 7.19466C9.309 7.20153 9.26704 7.20864 9.22337 7.21373C8.92305 7.2577 8.62693 7.29176 8.29869 7.32029C8.23117 7.32644 8.16568 7.33249 8.09888 7.33676L8.05795 7.33936C7.98681 7.34582 7.91763 7.35009 7.84431 7.35446C7.53554 7.37342 7.22982 7.38415 6.93421 7.38634C6.85494 7.38852 6.78753 7.38863 6.7195 7.38863C6.71417 7.38863 6.68896 7.38863 6.68302 7.38863Z" fill="#F6C358"/>
<path d="M1.27835 7.08284V8.88014C1.1958 8.84242 1.11797 8.80231 1.04249 8.75984C1.04249 8.75984 1.04014 8.75984 1.04014 8.75748C0.957589 8.7174 0.879757 8.67261 0.806641 8.62543V6.82812C0.879757 6.87527 0.957589 6.9201 1.04014 6.96021C1.04014 6.96257 1.04249 6.96257 1.04249 6.96257C1.11797 7.00501 1.1958 7.04508 1.27835 7.08284Z" fill="#DC8744"/>
<path d="M2.69363 7.57338V9.37071C2.61344 9.34946 2.53325 9.32824 2.45778 9.30703H2.45542C2.37523 9.28342 2.29976 9.25988 2.22192 9.23627V7.43896C2.29976 7.46254 2.37523 7.48615 2.45542 7.50969H2.45778C2.53325 7.53094 2.61344 7.55219 2.69363 7.57338Z" fill="#DC8744"/>
<path d="M4.10867 7.8494V9.6467C4.02848 9.63727 3.95065 9.62313 3.87282 9.61134H3.87046C3.79027 9.59955 3.71479 9.58537 3.63696 9.57123V7.77393C3.71479 7.7881 3.79027 7.80222 3.87046 7.814H3.87282C3.95065 7.82582 4.02848 7.84 4.10867 7.8494Z" fill="#DC8744"/>
<path d="M5.52395 7.99325V9.79059C5.44376 9.78588 5.36593 9.78116 5.2881 9.77405H5.28574C5.20555 9.76934 5.13008 9.76223 5.05225 9.75516V7.95789C5.13008 7.96496 5.20555 7.97203 5.28574 7.97675H5.2881C5.36593 7.98382 5.44373 7.98853 5.52395 7.99325Z" fill="#DC8744"/>
<path d="M6.93923 8.02637V9.82367C6.8614 9.82603 6.78357 9.82603 6.70338 9.82603H6.70102C6.62084 9.82603 6.54536 9.82603 6.46753 9.82367V8.02637C6.54536 8.02872 6.62084 8.02872 6.70102 8.02872H6.70338C6.78357 8.02872 6.8614 8.02872 6.93923 8.02637Z" fill="#DC8744"/>
<path d="M8.35452 7.95789V9.75516C8.27669 9.76223 8.19882 9.76934 8.11867 9.77405H8.11631C8.03848 9.78113 7.963 9.78588 7.88281 9.79059V7.99325C7.963 7.98853 8.03848 7.98382 8.11631 7.97675H8.11867C8.19882 7.97203 8.27666 7.96499 8.35452 7.95789Z" fill="#DC8744"/>
<path d="M9.76956 7.77393V9.57123C9.69172 9.58537 9.61389 9.59952 9.5337 9.61134H9.53135C9.45352 9.62313 9.37804 9.63724 9.29785 9.6467V7.8494C9.37804 7.83997 9.45352 7.82582 9.53135 7.814H9.5337C9.61389 7.80225 9.69172 7.7881 9.76956 7.77393Z" fill="#DC8744"/>
<path d="M11.1846 7.43896V9.23627C11.1068 9.25988 11.0289 9.28342 10.9487 9.30703H10.9464C10.8709 9.32824 10.7931 9.34946 10.7129 9.37071V7.57338C10.7931 7.55219 10.8709 7.53094 10.9464 7.50969H10.9487C11.0289 7.48615 11.1067 7.46254 11.1846 7.43896Z" fill="#DC8744"/>
<path d="M12.5999 6.82336V8.62537C12.5268 8.6702 12.4489 8.71735 12.364 8.75982C12.364 8.75982 12.3617 8.75982 12.3617 8.76218C12.2886 8.80229 12.2107 8.84004 12.1282 8.88012V7.08282C12.2107 7.04271 12.2886 7.00499 12.3617 6.96256C12.4466 6.92006 12.5244 6.87291 12.5999 6.82336Z" fill="#DC8744"/>
<path d="M16.0001 3.01257V4.80988C16.0001 5.20375 15.71 5.57408 15.1958 5.89959C15.1227 5.94441 15.0448 5.99156 14.9599 6.03403C14.9599 6.03403 14.9576 6.03403 14.9576 6.03639C14.8845 6.0765 14.8066 6.11425 14.7241 6.15433C14.4481 6.28406 14.1297 6.40436 13.7806 6.51048C13.7028 6.53409 13.6249 6.55763 13.5448 6.58124H13.5424C13.4669 6.60246 13.3891 6.62368 13.3089 6.64493C13.0117 6.72041 12.698 6.78877 12.3654 6.84542C12.2876 6.85957 12.2098 6.87371 12.1296 6.88553H12.1272C12.0494 6.89732 11.9739 6.91143 11.8937 6.92089C11.5895 6.96569 11.2757 7.00112 10.9502 7.02937C10.8724 7.03645 10.7946 7.04355 10.7144 7.04827H10.712C10.6342 7.05534 10.5587 7.06009 10.4785 7.0648C10.1719 7.08363 9.85585 7.09545 9.53506 7.09781C9.45722 7.10017 9.37939 7.10017 9.2992 7.10017H9.29685C9.21666 7.10017 9.14118 7.10017 9.06335 7.09781C8.74256 7.09545 8.42652 7.08363 8.11987 7.0648C8.03968 7.06009 7.96185 7.05537 7.88402 7.04827H7.88166C7.80147 7.04355 7.726 7.03645 7.64817 7.02937C7.32266 7.00108 7.00898 6.96569 6.70469 6.92089C6.6245 6.91146 6.54667 6.89732 6.46884 6.88553H6.46648C6.38629 6.87374 6.31082 6.85957 6.23299 6.84542C5.90041 6.78877 5.58672 6.72041 5.28951 6.64493C5.20932 6.62368 5.12913 6.60246 5.05366 6.58124H5.0513C4.97111 6.55763 4.89564 6.53409 4.8178 6.51048C4.46872 6.40436 4.15029 6.28406 3.87433 6.15433C3.79178 6.11661 3.71395 6.0765 3.63847 6.03403C3.63847 6.03403 3.63612 6.03403 3.63612 6.03167C3.55357 5.9916 3.47574 5.9468 3.40262 5.89962C2.88845 5.57647 2.59595 5.20378 2.59595 4.80991V3.01257H16.0001Z" fill="#F6C358"/>
<path d="M15.9998 3.01267C15.9998 3.40658 15.7097 3.77688 15.1956 4.09767C15.1201 4.14717 15.0423 4.19436 14.9573 4.23686C14.8842 4.2793 14.8064 4.31702 14.7238 4.35713C14.4479 4.48686 14.1294 4.6048 13.7803 4.71328C13.7025 4.73686 13.6247 4.76047 13.5445 4.78404H13.5421C13.4667 4.80529 13.3888 4.82654 13.3086 4.84773C13.0115 4.92323 12.6977 4.99164 12.3652 5.04825C12.2873 5.06243 12.2095 5.07654 12.1293 5.08833H12.127C12.0491 5.10015 11.9737 5.11429 11.8935 5.12372C11.5892 5.16855 11.2755 5.20391 10.95 5.23224C10.8722 5.23931 10.7943 5.24638 10.7141 5.2511H10.7118C10.6339 5.25814 10.5585 5.26289 10.4783 5.2676C10.1717 5.28649 9.85559 5.29828 9.5348 5.30064C9.45697 5.303 9.37914 5.303 9.29895 5.303H9.2966C9.21641 5.303 9.14093 5.303 9.0631 5.30064C8.74231 5.29832 8.42627 5.28649 8.11962 5.2676C8.03943 5.26289 7.9616 5.25817 7.88377 5.2511H7.88141C7.80122 5.24638 7.72575 5.23931 7.64792 5.23224C7.32241 5.20391 7.00873 5.16855 6.70444 5.12372C6.62425 5.11429 6.54642 5.10015 6.46859 5.08833H6.46623C6.38604 5.07654 6.31057 5.06243 6.23274 5.04825C5.90016 4.99164 5.58648 4.92323 5.28926 4.84773C5.20907 4.82654 5.12888 4.80529 5.05341 4.78404H5.05105C4.97086 4.7605 4.89539 4.73689 4.81756 4.71328C4.46848 4.60713 4.15004 4.48686 3.87408 4.35713C3.79153 4.31937 3.7137 4.2793 3.63823 4.23686C3.63823 4.23686 3.63587 4.23686 3.63587 4.2345C3.55332 4.19436 3.47549 4.14957 3.40238 4.10242C2.8882 3.77927 2.5957 3.40661 2.5957 3.0127C2.5957 1.74847 5.59826 0.722412 9.29902 0.722412C12.9998 0.722412 15.9998 1.74844 15.9998 3.01267Z" fill="#FCD462"/>
<path d="M9.27814 4.66297C9.21159 4.66297 9.14814 4.66287 9.08295 4.66089C8.77254 4.65839 8.46679 4.64766 8.15908 4.6288C8.08398 4.62433 8.01295 4.62006 7.94199 4.6136L7.91301 4.611H7.90112C7.84051 4.60714 7.78257 4.60174 7.72342 4.59641C7.37561 4.56601 7.07935 4.53194 6.79781 4.49057C6.73426 4.48274 6.68978 4.47536 6.64553 4.46829L6.51543 4.4483C6.46835 4.44068 6.34729 4.41851 6.34729 4.41851C6.04304 4.36675 5.75085 4.30466 5.44697 4.22735C5.37583 4.20859 5.29916 4.18829 5.22707 4.16796L5.0027 4.10066C4.73791 4.02012 4.49396 3.93139 4.27594 3.83648V3.83388L3.91907 3.66045L3.80594 3.5968H3.80137C3.78418 3.58659 3.76699 3.57586 3.74991 3.56482C3.36865 3.32524 3.23584 3.11837 3.23584 3.01262C3.23584 2.43087 5.53782 1.3623 9.29915 1.3623C13.059 1.3623 15.3601 2.43083 15.3601 3.01262C15.3601 3.11782 15.2283 3.32292 14.857 3.55471C14.7784 3.60596 14.7231 3.63845 14.6711 3.66448L14.6365 3.68314C14.5771 3.71761 14.5135 3.74782 14.4465 3.78045C14.2164 3.88858 13.9267 3.99764 13.5906 4.10212L13.369 4.16796C13.2967 4.18829 13.2223 4.20859 13.1457 4.22878C12.8473 4.30463 12.5551 4.36671 12.2581 4.41721C12.1927 4.4291 12.1334 4.43993 12.0739 4.44929L11.9454 4.46907C11.9036 4.47594 11.8619 4.48291 11.8185 4.48804C11.5187 4.53201 11.2224 4.56594 10.8946 4.5945C10.8266 4.60075 10.7614 4.6067 10.6947 4.61097L10.6539 4.61356C10.583 4.62002 10.5141 4.62429 10.4411 4.62856C10.1315 4.64763 9.82577 4.65836 9.53012 4.66054C9.45044 4.66283 9.38344 4.66294 9.31576 4.66294C9.31033 4.66297 9.28426 4.66297 9.27814 4.66297Z" fill="#F6C358"/>
<path d="M3.87405 4.35701V6.15431C3.7915 6.11659 3.71367 6.07648 3.6382 6.03401C3.6382 6.03401 3.63584 6.03401 3.63584 6.03165C3.55329 5.99157 3.47546 5.94678 3.40234 5.8996V4.10229C3.47546 4.14944 3.55329 4.19427 3.63584 4.23438C3.63584 4.23674 3.6382 4.23674 3.6382 4.23674C3.71367 4.27918 3.7915 4.31929 3.87405 4.35701Z" fill="#DC8744"/>
<path d="M5.28933 4.84767V6.645C5.20914 6.62375 5.12895 6.60254 5.05348 6.58132H5.05112C4.97093 6.55771 4.89546 6.53417 4.81763 6.51056V4.71326C4.89546 4.73683 4.97093 4.76044 5.05112 4.78402H5.05348C5.12895 4.80523 5.20914 4.82648 5.28933 4.84767Z" fill="#DC8744"/>
<path d="M6.70437 5.12369V6.92099C6.62418 6.91156 6.54635 6.89742 6.46852 6.88563H6.46616C6.38597 6.87384 6.3105 6.85966 6.23267 6.84552V5.04822C6.3105 5.0624 6.38597 5.07651 6.46616 5.08829H6.46852C6.54635 5.10012 6.62418 5.1143 6.70437 5.12369Z" fill="#DC8744"/>
<path d="M8.11966 5.26754V7.06488C8.03947 7.06016 7.96164 7.05545 7.88381 7.04834H7.88145C7.80126 7.04363 7.72578 7.03652 7.64795 7.02945V5.23218C7.72578 5.23925 7.80126 5.24632 7.88145 5.25104H7.88381C7.96164 5.25811 8.03947 5.26283 8.11966 5.26754Z" fill="#DC8744"/>
<path d="M9.53494 5.30054V7.09784C9.45711 7.1002 9.37927 7.1002 9.29908 7.1002H9.29673C9.21654 7.1002 9.14106 7.1002 9.06323 7.09784V5.30054C9.14106 5.30289 9.21654 5.30289 9.29673 5.30289H9.29908C9.37927 5.30289 9.45711 5.30289 9.53494 5.30054Z" fill="#DC8744"/>
<path d="M10.9502 5.2323V7.02957C10.8724 7.03664 10.7946 7.04375 10.7144 7.04846H10.712C10.6342 7.05553 10.5587 7.06028 10.4785 7.065V5.26766C10.5587 5.26295 10.6342 5.25823 10.712 5.25116H10.7144C10.7945 5.24641 10.8724 5.23937 10.9502 5.2323Z" fill="#DC8744"/>
<path d="M12.3653 5.04822V6.84552C12.2874 6.85967 12.2096 6.87381 12.1294 6.88563H12.127C12.0492 6.89742 11.9737 6.91153 11.8936 6.92099V5.12366C11.9737 5.11423 12.0492 5.10008 12.127 5.08826H12.1294C12.2096 5.07651 12.2874 5.06236 12.3653 5.04822Z" fill="#DC8744"/>
<path d="M13.7805 4.71326V6.51056C13.7027 6.53417 13.6249 6.55771 13.5447 6.58132H13.5423C13.4669 6.60254 13.389 6.62375 13.3088 6.645V4.84767C13.389 4.82648 13.4669 4.80523 13.5423 4.78398H13.5447C13.6248 4.76044 13.7027 4.73683 13.7805 4.71326Z" fill="#DC8744"/>
<path d="M15.1956 4.09766V5.89968C15.1225 5.9445 15.0446 5.99165 14.9597 6.03412C14.9597 6.03412 14.9574 6.03412 14.9574 6.03648C14.8843 6.07659 14.8064 6.11435 14.7239 6.15442V4.35712C14.8064 4.31701 14.8843 4.27929 14.9574 4.23685C15.0423 4.19431 15.1201 4.14716 15.1956 4.09766Z" fill="#DC8744"/>
</g>
<defs>
<clipPath id="clip0">
<rect width="16" height="16" fill="white"/>
</clipPath>
</defs>
</svg>
