<svg width="48" height="45" viewBox="0 0 48 45" fill="none" xmlns="http://www.w3.org/2000/svg">
<path d="M0.991211 0.977844L47.6311 0.977842V44.5483H0.991211V0.977844Z" fill="current"/>
<path d="M36.6949 14.4159C35.7717 14.825 34.78 15.1014 33.7375 15.2263C34.8132 14.5826 35.618 13.5696 36.0017 12.3762C34.991 12.9765 33.8849 13.399 32.7314 13.6255C31.9557 12.7972 30.9283 12.2483 29.8086 12.0638C28.689 11.8793 27.5398 12.0697 26.5394 12.6053C25.539 13.1409 24.7434 13.9918 24.2762 15.0259C23.8089 16.06 23.6962 17.2194 23.9554 18.3241C21.9075 18.2213 19.9042 17.689 18.0753 16.7619C16.2465 15.8347 14.633 14.5333 13.3397 12.9422C12.8975 13.7051 12.6432 14.5895 12.6432 15.5315C12.6427 16.3794 12.8515 17.2144 13.2511 17.9623C13.6507 18.7102 14.2288 19.3479 14.9339 19.8189C14.1161 19.7928 13.3163 19.5719 12.6012 19.1743V19.2406C12.6011 20.43 13.0125 21.5827 13.7656 22.5032C14.5186 23.4237 15.567 24.0553 16.7327 24.2909C15.974 24.4962 15.1786 24.5265 14.4066 24.3793C14.7355 25.4027 15.3762 26.2975 16.2389 26.9387C17.1017 27.5798 18.1433 27.9351 19.218 27.9548C17.3936 29.3869 15.1406 30.1638 12.8212 30.1604C12.4103 30.1605 11.9998 30.1365 11.5918 30.0885C13.9461 31.6022 16.6866 32.4056 19.4856 32.4025C28.9603 32.4025 34.1399 24.5551 34.1399 17.7492C34.1399 17.5281 34.1344 17.3048 34.1244 17.0837C35.1319 16.3551 36.0016 15.4528 36.6927 14.4193L36.6949 14.4159Z" fill="#FF7700"/>
</svg>
