<svg width="48" height="45" viewBox="0 0 48 45" fill="none" xmlns="http://www.w3.org/2000/svg">
<path d="M0.786133 0.977844L47.426 0.977842V44.5483H0.786133V0.977844Z" fill="current"/>
<path d="M24.2208 17.6581C22.1679 17.6581 20.4926 19.3334 20.4926 21.3863C20.4926 23.4392 22.1679 25.1145 24.2208 25.1145C26.2736 25.1145 27.9489 23.4392 27.9489 21.3863C27.9489 19.3334 26.2736 17.6581 24.2208 17.6581ZM35.4024 21.3863C35.4024 19.8425 35.4163 18.3126 35.3296 16.7715C35.2429 14.9815 34.8346 13.3929 33.5257 12.084C32.214 10.7723 30.6282 10.3667 28.8383 10.28C27.2944 10.1933 25.7646 10.2073 24.2236 10.2073C22.6797 10.2073 21.1499 10.1933 19.6089 10.28C17.8189 10.3667 16.2303 10.7751 14.9214 12.084C13.6097 13.3957 13.2042 14.9815 13.1175 16.7715C13.0308 18.3154 13.0448 19.8452 13.0448 21.3863C13.0448 22.9274 13.0308 24.46 13.1175 26.0011C13.2042 27.7911 13.6125 29.3797 14.9214 30.6886C16.2331 32.0003 17.8189 32.4059 19.6089 32.4926C21.1527 32.5793 22.6825 32.5653 24.2236 32.5653C25.7674 32.5653 27.2972 32.5793 28.8383 32.4926C30.6282 32.4059 32.2168 31.9975 33.5257 30.6886C34.8374 29.3769 35.2429 27.7911 35.3296 26.0011C35.4191 24.46 35.4024 22.9302 35.4024 21.3863ZM24.2208 27.1226C21.0464 27.1226 18.4845 24.5607 18.4845 21.3863C18.4845 18.2119 21.0464 15.65 24.2208 15.65C27.3951 15.65 29.957 18.2119 29.957 21.3863C29.957 24.5607 27.3951 27.1226 24.2208 27.1226ZM30.1919 16.7547C29.4508 16.7547 28.8523 16.1562 28.8523 15.415C28.8523 14.6739 29.4508 14.0754 30.1919 14.0754C30.9331 14.0754 31.5316 14.6739 31.5316 15.415C31.5318 15.591 31.4973 15.7653 31.4301 15.928C31.3628 16.0906 31.2641 16.2384 31.1397 16.3628C31.0153 16.4873 30.8675 16.586 30.7049 16.6532C30.5422 16.7205 30.3679 16.755 30.1919 16.7547Z" fill="#FF7700"/>
</svg>
