<svg width="48" height="45" viewBox="0 0 48 45" fill="none" xmlns="http://www.w3.org/2000/svg">
<path d="M0.376465 0.977844L47.0164 0.977842V44.5483H0.376465V0.977844Z" fill="current"/>
<path d="M15.0533 17.9744C15.0533 16.9304 15.2358 15.944 15.5955 15.0235C15.9391 14.1293 16.4496 13.3087 17.0998 12.6053C17.7487 11.9111 18.4912 11.3108 19.306 10.8218C20.1419 10.3161 21.0469 9.93457 21.9925 9.6892C22.9496 9.43788 23.9352 9.31114 24.9247 9.31211C26.4532 9.31211 27.8757 9.63552 29.1948 10.2797C30.4967 10.912 31.6049 11.8825 32.4034 13.0897C33.2274 14.3176 33.6367 15.7065 33.6367 17.2551C33.6367 18.1838 33.5454 19.0923 33.3589 19.9806C33.1757 20.8685 32.8846 21.7306 32.492 22.5478C32.1177 23.3388 31.6284 24.07 31.04 24.7177C30.4486 25.3551 29.7323 25.8639 28.9358 26.2127C28.0711 26.5916 27.1356 26.7824 26.1915 26.7722C25.5353 26.7722 24.8804 26.6179 24.2336 26.3079C23.5868 25.9993 23.1225 25.5752 22.8433 25.0317C22.7454 25.4088 22.6112 25.9537 22.4327 26.6662C22.2609 27.3775 22.1455 27.8364 22.0945 28.0444C22.0409 28.2511 21.9415 28.596 21.7966 29.0737C21.6983 29.4271 21.5722 29.7721 21.4195 30.1057L20.9579 31.0101C20.7583 31.3982 20.5351 31.7738 20.2896 32.1347C20.0467 32.4863 19.7461 32.9063 19.3878 33.3894L19.1879 33.4605L19.055 33.3156C18.9114 31.7952 18.8376 30.8853 18.8376 30.5847C18.8376 29.695 18.9436 28.6966 19.153 27.5882C19.3583 26.481 19.683 25.0894 20.1192 23.416C20.5553 21.744 20.8049 20.7603 20.872 20.4691C20.5647 19.8424 20.409 19.0238 20.409 18.0174C20.409 17.2135 20.66 16.4607 21.1632 15.7521C21.6678 15.0463 22.3052 14.6933 23.0782 14.6933C23.67 14.6933 24.1289 14.8893 24.4577 15.2825C24.7878 15.6743 24.9489 16.1681 24.9489 16.7707C24.9489 17.4094 24.7368 18.3341 24.3101 19.5431C23.8834 20.7536 23.6713 21.6567 23.6713 22.2566C23.6713 22.8645 23.8887 23.3731 24.3235 23.7716C24.7526 24.1704 25.32 24.3865 25.9057 24.3742C26.4371 24.3742 26.9296 24.2534 27.3872 24.0105C27.8376 23.7747 28.2275 23.4381 28.5265 23.0269C29.1776 22.1335 29.6418 21.118 29.8913 20.041C30.0201 19.4747 30.1194 18.9366 30.1811 18.4307C30.2469 17.9221 30.2751 17.4417 30.2751 16.9854C30.2751 15.312 29.7437 14.0076 28.6875 13.0736C27.6261 12.1396 26.2438 11.6753 24.5436 11.6753C22.6098 11.6753 20.9928 12.3006 19.6978 13.5554C18.4015 14.8061 17.7493 16.3963 17.7493 18.3247C17.7493 18.7501 17.8137 19.1607 17.9358 19.5579C18.0553 19.9538 18.1854 20.2691 18.3263 20.5026C18.4659 20.7321 18.5974 20.9562 18.7168 21.1629C18.8376 21.3695 18.9007 21.5172 18.9007 21.6057C18.9007 21.8768 18.8296 22.2297 18.686 22.6659C18.537 23.102 18.3612 23.3194 18.1492 23.3194C18.1291 23.3194 18.0459 23.3046 17.9009 23.2738C17.399 23.1239 16.9457 22.8438 16.5872 22.4619C16.2066 22.0661 15.9063 21.6004 15.7028 21.0904C15.4999 20.5823 15.3418 20.0574 15.2304 19.5217C15.1101 19.0148 15.0506 18.4954 15.0533 17.9744Z" fill="#FF7700"/>
</svg>
