<svg width="48" height="45" viewBox="0 0 48 45" fill="none" xmlns="http://www.w3.org/2000/svg">
<path d="M0.581055 0.977844H47.221V44.5483H0.581055V0.977844Z" fill="current"/>
<path d="M13.1225 32.5662H17.2771V17.6746H13.1225V32.5662ZM15.1998 11.1009C13.8149 11.1009 12.707 12.1742 12.707 13.5157C12.707 14.8573 13.8149 15.9306 15.1998 15.9306C16.5846 15.9306 17.6925 14.8573 17.6925 13.5157C17.6925 12.1742 16.5846 11.1009 15.1998 11.1009ZM24.3398 19.9553V17.6746H20.1853V32.5662H24.3398V24.9192C24.3398 20.6261 30.0177 20.3578 30.0177 24.9192V32.5662H34.1723V23.4434C34.1723 16.1989 26.2786 16.4672 24.3398 19.9553Z" fill="#FF7700"/>
</svg>
