<svg width="16" height="16" viewBox="0 0 16 16" fill="none" xmlns="http://www.w3.org/2000/svg">
<path d="M2.66659 14.6667H10.6666C11.0202 14.6667 11.3593 14.5262 11.6094 14.2761C11.8594 14.0261 11.9999 13.687 11.9999 13.3333V5.33333C11.9999 4.97971 11.8594 4.64057 11.6094 4.39052C11.3593 4.14048 11.0202 4 10.6666 4H2.66659C2.31296 4 1.97382 4.14048 1.72378 4.39052C1.47373 4.64057 1.33325 4.97971 1.33325 5.33333V13.3333C1.33325 13.687 1.47373 14.0261 1.72378 14.2761C1.97382 14.5262 2.31296 14.6667 2.66659 14.6667ZM3.99992 8.66667H5.99992V6.66667H7.33325V8.66667H9.33325V10H7.33325V12H5.99992V10H3.99992V8.66667Z" fill="#E37C33"/>
<path d="M13.3333 1.33333H5.33325V2.66666H13.3333V10.6667H14.6666V2.66666C14.6666 1.93133 14.0686 1.33333 13.3333 1.33333Z" fill="#E37C33"/>
</svg>
