<svg width="28" height="27" viewBox="0 0 28 27" fill="none" xmlns="http://www.w3.org/2000/svg">
<path d="M23.7501 1.65106C23.7501 1.65106 21.2502 7.25702 21.2502 11.9017C21.2502 13.3892 21.7814 14.633 22.5002 15.8722C23.3252 17.2984 24.397 18.7171 25.1829 20.4916C25.8064 21.9013 26.2501 23.5322 26.2501 25.5698" stroke="white" stroke-width="2.5" stroke-linecap="square" stroke-linejoin="round"/>
<path d="M3.75031 1.65073C3.75031 1.65073 6.25028 7.25668 6.25028 11.9014C6.25028 13.3888 5.71904 14.6326 5.0003 15.8719C4.17531 17.2981 3.10345 18.7167 2.31752 20.4912C1.6004 22.0957 1.2371 23.8245 1.25035 25.5695" stroke="white" stroke-width="2.5" stroke-linecap="square" stroke-linejoin="round"/>
<path d="M5.00056 15.8725H22.5003" stroke="white" stroke-width="2.5" stroke-linecap="square" stroke-linejoin="round"/>
<path d="M2.31734 20.493C2.31734 20.493 11.25 22.1509 13.75 25.5698C16.25 22.1524 25.1826 20.493 25.1826 20.493" stroke="white" stroke-width="2.5" stroke-linecap="square" stroke-linejoin="round"/>
</svg>
