<svg width="24" height="20" viewBox="0 0 24 20" fill="none" xmlns="http://www.w3.org/2000/svg">
<path d="M22.1474 3.53734L22.9629 5.04521L21.4551 5.86074L23.0861 8.87649L21.5783 9.69202L22.3938 11.1999L20.132 12.4232L17.6854 7.89957L7.13026 13.6083L9.57686 18.1319L7.31505 19.3552L6.49952 17.8473L4.99164 18.6629L3.36058 15.6471L1.85271 16.4627L1.03717 14.9548L2.54505 14.1393L0.913982 11.1235L2.42186 10.308L1.60632 8.8001L3.86813 7.5768L6.31473 12.1004L16.8698 6.3917L14.4232 1.86808L16.6851 0.644779L17.5006 2.15265L19.0085 1.33712L20.6395 4.35287L22.1474 3.53734Z" fill="white"/>
</svg>
