<svg width="30" height="35" viewBox="0 0 40 50" fill="none" xmlns="http://www.w3.org/2000/svg">
<path d="M20 11.8164C22.5852 11.8164 24.6875 9.18857 24.6875 5.95703C24.6875 2.72549 22.5852 0 20 0C17.4148 0 15.3125 2.72549 15.3125 5.95703C15.3125 9.18857 17.4148 11.8164 20 11.8164Z" fill="#FFAE42"/>
<path d="M27.0312 29.3945H31.5698C31.6299 28.4479 31.6693 27.4705 31.6905 26.4648H27.0312V29.3945Z" fill="#FFAE42"/>
<path d="M8.39969 23.5352H12.9688V20.6055H15.3125V29.3945H24.6875V20.6055H27.0313V23.5352H31.6003C31.0087 16.9614 26.5865 11.8164 21.1719 11.8164H18.8281C13.4135 11.8164 8.99133 16.9614 8.39969 23.5352Z" fill="#FFAE42"/>
<path d="M8.67474 32.3242C9.3142 38.2701 10.8574 44.9221 13.5134 50H18.8281V36.7188H21.1719V50H26.4865C29.1451 44.917 30.6867 38.2612 31.3251 32.3242H8.67474Z" fill="#FFAE42"/>
<path d="M8.3096 26.4648C8.33077 27.4705 8.37015 28.4479 8.43023 29.3945H12.9687V26.4648H8.3096Z" fill="#FFAE42"/>
</svg>
