<svg width="18" height="20" viewBox="0 0 18 20" fill="none" xmlns="http://www.w3.org/2000/svg">
<path d="M9.26576 0.448057C9.12222 0.320473 8.93685 0.25 8.7448 0.25C8.55276 0.25 8.36739 0.320473 8.22385 0.448057C7.26151 1.30217 6.55437 2.406 6.18078 3.63728C5.80719 4.86856 5.78173 6.17922 6.10721 7.42408C4.56397 6.51324 2.77579 6.10454 0.990083 6.25452C0.883975 6.26324 0.780645 6.29288 0.686059 6.34175C0.591474 6.39062 0.507506 6.45774 0.439005 6.53924C0.370504 6.62074 0.318827 6.71501 0.286959 6.81659C0.25509 6.91817 0.243662 7.02506 0.253332 7.13109C0.404087 8.78938 1.18217 10.438 2.26055 11.7133C1.83733 11.6863 1.41271 11.6903 0.990083 11.7254C0.883975 11.7342 0.780645 11.7638 0.686059 11.8127C0.591474 11.8615 0.507506 11.9287 0.439005 12.0102C0.370504 12.0917 0.318827 12.1859 0.286959 12.2875C0.25509 12.3891 0.243662 12.496 0.253332 12.602C0.428399 14.5262 1.31661 16.3153 2.74349 17.618C4.17037 18.9207 6.03279 19.6428 7.96489 19.6425H9.52471C11.4566 19.6425 13.3187 18.9203 14.7453 17.6176C16.172 16.3149 17.06 14.526 17.2351 12.602C17.2446 12.4961 17.233 12.3893 17.2011 12.2879C17.1691 12.1864 17.1174 12.0923 17.0489 12.0109C16.9804 11.9296 16.8965 11.8626 16.802 11.8138C16.7075 11.765 16.6043 11.7354 16.4983 11.7267C16.0757 11.6911 15.6511 11.6867 15.2278 11.7133C16.3062 10.438 17.0843 8.78938 17.2338 7.13109C17.2432 7.02528 17.2316 6.91868 17.1996 6.81738C17.1677 6.71608 17.1161 6.62208 17.0477 6.54076C16.9794 6.45944 16.8957 6.39241 16.8014 6.3435C16.7071 6.29459 16.6041 6.26477 16.4983 6.25574C14.7131 6.10564 12.9254 6.51391 11.3824 7.42408C11.7082 6.17934 11.683 4.86871 11.3096 3.63741C10.9362 2.40611 10.2292 1.30222 9.26697 0.448057H9.26576ZM8.74541 15.2998C7.70553 13.8577 6.24836 12.7693 4.57049 12.1814C4.55676 12.1702 4.54256 12.1597 4.52794 12.1497C3.06782 11.1552 1.8326 9.30851 1.52015 7.44354C3.35005 7.3961 5.13327 8.02456 6.52908 9.20882C7.45184 9.99055 7.70594 10.7054 7.93328 11.3461C8.01596 11.5771 8.09498 11.7996 8.20075 12.0124C8.25117 12.1135 8.32879 12.1986 8.42489 12.2581C8.521 12.3176 8.63178 12.3491 8.7448 12.3491C8.85783 12.3491 8.96861 12.3176 9.06472 12.2581C9.16082 12.1986 9.23844 12.1135 9.28886 12.0124C9.39463 11.7996 9.47365 11.5783 9.55632 11.3461C9.78367 10.7054 10.0378 9.99055 10.9617 9.20882C12.3572 8.02484 14.14 7.3964 15.9695 7.44354C15.657 9.30973 14.4218 11.1553 12.9617 12.1485C12.947 12.1588 12.9328 12.1698 12.9191 12.1814C11.2417 12.7694 9.78492 13.8579 8.74541 15.2998ZM7.96489 18.4267C6.40973 18.4268 4.90567 17.8715 3.72364 16.8608C2.54162 15.8502 1.75934 14.4507 1.51772 12.9145C2.87545 12.8798 4.21685 13.2167 5.39704 13.8888C6.57722 14.561 7.55132 15.5428 8.21412 16.7283C8.26688 16.8227 8.34387 16.9014 8.43715 16.9561C8.53044 17.0108 8.63664 17.0397 8.7448 17.0397C8.85297 17.0397 8.95917 17.0108 9.05245 16.9561C9.14574 16.9014 9.22273 16.8227 9.27548 16.7283C9.93829 15.5428 10.9124 14.561 12.0926 13.8888C13.2728 13.2167 14.6142 12.8798 15.9719 12.9145C15.7302 14.4509 14.9478 15.8506 13.7655 16.8612C12.5832 17.8719 11.0789 18.427 9.5235 18.4267H7.96489ZM8.7442 9.69269C7.6892 8.616 7.0983 7.16865 7.0983 5.66123C7.0983 4.15382 7.6892 2.70647 8.7442 1.62978C9.79919 2.70647 10.3901 4.15382 10.3901 5.66123C10.3901 7.16865 9.79919 8.616 8.7442 9.69269Z" fill="#F48433" stroke="#F48433" stroke-width="0.5"/>
</svg>
