<svg width="17" height="17" viewBox="0 0 17 17" fill="none" xmlns="http://www.w3.org/2000/svg">
<g opacity="0.5">
<path d="M8.50008 1.41663C4.60425 1.41663 1.41675 4.60413 1.41675 8.49996C1.41675 12.3958 4.60425 15.5833 8.50008 15.5833C12.3959 15.5833 15.5834 12.3958 15.5834 8.49996C15.5834 4.60413 12.3959 1.41663 8.50008 1.41663ZM11.0147 11.1916L8.12467 9.41371C7.91217 9.28621 7.78467 9.05954 7.78467 8.81163V5.48954C7.79175 5.19913 8.03258 4.95829 8.323 4.95829C8.61342 4.95829 8.85425 5.19913 8.85425 5.48954V8.64163L11.5742 10.2779C11.8292 10.4337 11.9142 10.7666 11.7584 11.0216C11.6026 11.2695 11.2697 11.3475 11.0147 11.1916Z" fill="white"/>
</g>
</svg>
