<svg width="48" height="73" viewBox="0 0 48 73" fill="none" xmlns="http://www.w3.org/2000/svg">
<path d="M41.0059 41.8526C50.3222 32.4799 50.3222 17.2831 41.0059 7.9085C31.6887 -1.46429 16.5844 -1.46429 7.26722 7.9085C-2.05001 17.2831 -2.05001 32.4799 7.26722 41.8526C10.6011 45.2164 14.856 47.5039 19.4884 48.423V55.8417H14.6585C14.4735 55.8416 14.2904 55.8781 14.1196 55.9493C13.9487 56.0205 13.7935 56.1248 13.6627 56.2564C13.532 56.388 13.4284 56.5443 13.3577 56.7162C13.2871 56.8882 13.2509 57.0724 13.2511 57.2585V63.573C13.2511 64.3543 13.8819 64.988 14.6585 64.9889H19.4884V71.0338C19.4884 71.7243 19.9806 72.2984 20.6314 72.4231V72.4497H27.1732C27.9498 72.4497 28.5805 71.816 28.5805 71.0338H28.5814V64.9889H33.6156C34.3931 64.9889 35.0229 64.3552 35.0229 63.573V57.2585C35.0235 57.0723 34.9875 56.8879 34.917 56.7158C34.8465 56.5437 34.7429 56.3873 34.6121 56.2556C34.4813 56.124 34.326 56.0196 34.1549 55.9486C33.9839 55.8775 33.8006 55.8412 33.6156 55.8417H28.5823V48.4616C33.2916 47.5704 37.6226 45.2665 41.0059 41.8526ZM24.137 39.7353C15.9829 39.7353 9.37184 33.0851 9.37275 24.8815C9.37275 16.6779 15.9829 10.0268 24.1379 10.0268C32.2921 10.0268 38.9031 16.677 38.9022 24.8806C38.9013 33.0842 32.2912 39.7353 24.137 39.7353Z" fill="white"/>
</svg>
