<svg width="15" height="21" viewBox="0 0 15 21" fill="none" xmlns="http://www.w3.org/2000/svg">
<path d="M7.5 21C8.11403 21 8.42105 20.7129 8.42105 20.1387V17.4316C10.2632 17.2402 11.769 16.625 12.9386 15.5859C14.3129 14.3828 15 12.6875 15 10.5C15 9.87109 14.9708 9.40625 14.9123 9.10547C15.0292 8.75 14.9854 8.46289 14.7807 8.24414L14.693 8.12109C14.4006 6.97266 13.9327 5.89258 13.2895 4.88086C12.6462 3.86914 11.9298 3.03516 11.1404 2.37891C10.3509 1.72266 9.72953 1.23047 9.27632 0.902344C8.8231 0.574219 8.42105 0.314453 8.07018 0.123047L7.98246 0.0820312L7.76316 0H7.23684L7.01754 0.0820312C6.92982 0.109375 6.71053 0.225586 6.35965 0.430664C6.00877 0.635742 5.53363 0.970703 4.93421 1.43555C4.3348 1.90039 3.74269 2.43359 3.15789 3.03516C2.5731 3.63672 2.01023 4.38867 1.4693 5.29102C0.928363 6.19336 0.540936 7.13672 0.307018 8.12109L0.219298 8.24414C0.0146199 8.46289 -0.0292398 8.75 0.0877193 9.10547C0.0292398 9.40625 0 9.87109 0 10.5C0 12.6875 0.687134 14.3828 2.0614 15.5859C3.23099 16.625 4.73684 17.2402 6.57895 17.4316V20.1387C6.57895 20.7129 6.88596 21 7.5 21ZM8.42105 2.46094C9.47368 3.22656 10.3509 4.0332 11.0526 4.88086L8.42105 6.93164V2.46094ZM8.42105 9.1875L12.1053 6.48047C12.2807 6.78125 12.5292 7.45117 12.8509 8.49023L8.42105 11.4434V9.1875ZM8.42105 13.5762L13.114 10.418V10.5C13.114 12.2227 12.617 13.5078 11.6228 14.3555C10.7749 15.0391 9.7076 15.5039 8.42105 15.75V13.5762ZM6.57895 2.46094V6.93164L3.94737 5.00391C4.38596 4.375 5.26316 3.52734 6.57895 2.46094ZM2.89474 6.48047L6.57895 9.1875V11.4434L2.14912 8.49023C2.3538 7.80664 2.60234 7.13672 2.89474 6.48047ZM3.37719 14.3555C2.38304 13.4258 1.88596 12.1406 1.88596 10.5V10.418L6.57895 13.5762V15.668C5.38012 15.5586 4.31287 15.1211 3.37719 14.3555Z" fill="#F48433"/>
</svg>
