<svg width="30" height="35" viewBox="0 0 34 46" fill="none" xmlns="http://www.w3.org/2000/svg">
<path d="M33.9045 26.8185C33.3929 20.1569 30.2913 15.9824 27.5552 12.2987C25.0216 8.88828 22.8333 5.94325 22.8333 1.5989C22.8333 1.24994 22.6379 0.930991 22.328 0.771081C22.0172 0.610211 21.6437 0.636558 21.3612 0.841919C17.2518 3.78242 13.8231 8.73841 12.6254 13.4671C11.7939 16.7593 11.6839 20.4603 11.6685 22.9047C7.87357 22.0942 7.01392 16.4177 7.00484 16.3558C6.96209 16.0614 6.78221 15.8052 6.52049 15.6652C6.25606 15.5271 5.94523 15.5171 5.67714 15.6498C5.47815 15.7461 0.792601 18.1269 0.519978 27.6326C0.500872 27.9488 0.5 28.266 0.5 28.5831C0.5 37.818 8.01438 45.332 17.25 45.332C17.2627 45.3329 17.2763 45.3347 17.2872 45.332C17.2909 45.332 17.2945 45.332 17.299 45.332C26.512 45.3056 34 37.8017 34 28.5831C34 28.1188 33.9045 26.8185 33.9045 26.8185ZM17.25 43.471C14.1711 43.471 11.6667 40.8031 11.6667 37.5237C11.6667 37.4119 11.6658 37.2992 11.6739 37.1611C11.7112 35.7781 11.9738 34.834 12.2619 34.2061C12.8017 35.3656 13.7668 36.4315 15.3344 36.4315C15.8488 36.4315 16.265 36.0152 16.265 35.501C16.265 34.1761 16.2923 32.6477 16.6221 31.2683C16.9157 30.0452 17.6172 28.7439 18.506 27.7008C18.9013 29.0547 19.6719 30.1506 20.4244 31.2201C21.5013 32.7503 22.6144 34.3324 22.8099 37.0303C22.8216 37.1902 22.8335 37.3511 22.8335 37.5237C22.8333 40.803 20.3288 43.471 17.25 43.471Z" fill="#FFAE42"/>
</svg>
