<svg width="32" height="32" viewBox="0 0 32 32" fill="none" xmlns="http://www.w3.org/2000/svg">
<path d="M2.00831 4.01662C3.11747 4.01662 4.01662 3.11747 4.01662 2.00831C4.01662 0.899152 3.11747 0 2.00831 0C0.899152 0 0 0.899152 0 2.00831C0 3.11747 0.899152 4.01662 2.00831 4.01662Z" fill="#677182"/>
<path d="M1.0708 4.95422V19.3677H17.7198C18.1971 19.3677 18.6587 19.4703 19.0791 19.6652V5.37604C19.0791 4.63272 18.4787 4.01672 17.7198 4.01672H2.0083C1.49055 4.01672 1.0708 4.43641 1.0708 4.95422Z" fill="#677182"/>
<path d="M6.0249 21.2427V28.1273L18.6083 23.2876C18.8897 23.1792 19.0791 22.9036 19.0791 22.602C19.0791 21.8524 18.4693 21.2427 17.7198 21.2427H6.0249Z" fill="#677182"/>
<path d="M25.1798 24.3244L31.2549 18.2494C31.8455 17.6588 31.4272 16.6489 30.592 16.6489H20.9543V22.6018C20.9543 23.6734 20.2821 24.6522 19.2818 25.0374L6.49615 29.9549C6.21421 30.0632 6.02515 30.3386 6.02515 30.6406C6.02515 31.3901 6.6349 31.9999 7.38446 31.9999H30.592C31.4272 31.9999 31.8455 30.9901 31.2549 30.3994L25.1798 24.3244Z" fill="#677182"/>
<path d="M1.0708 31.0626C1.0708 31.5803 1.49055 32.0001 2.0083 32.0001C2.52605 32.0001 2.9458 31.5803 2.9458 31.0626V21.2427H1.0708V31.0626Z" fill="#677182"/>
</svg>
