<svg width="35" height="30" viewBox="0 0 35 30" fill="none" xmlns="http://www.w3.org/2000/svg">
<path d="M25.3217 1C20.2498 1 17.7498 6 17.7498 6C17.7498 6 15.2498 1 10.1779 1C6.05607 1 2.79201 4.44844 2.74982 8.56328C2.66388 17.1047 9.5256 23.1789 17.0467 28.2836C17.254 28.4247 17.499 28.5001 17.7498 28.5001C18.0006 28.5001 18.2456 28.4247 18.4529 28.2836C25.9733 23.1789 32.835 17.1047 32.7498 8.56328C32.7076 4.44844 29.4436 1 25.3217 1V1Z" stroke="white" stroke-width="2" stroke-linecap="round" stroke-linejoin="round"/>
<path d="M1.5 14.75H10.25L14 7.25L17.75 19.75L21.5 12.25L24 17.25H34" stroke="white" stroke-width="2" stroke-linecap="round" stroke-linejoin="round"/>
</svg>
