<svg width="70" height="70" viewBox="0 0 70 70" fill="none" xmlns="http://www.w3.org/2000/svg">
<path d="M69.0087 2.48746L69.0097 2.48232C69.0097 1.60614 68.3048 0.896367 67.4344 0.89534V0.878906H46.187V0.896368C45.7713 0.900158 45.3739 1.06878 45.0812 1.36557C44.7885 1.66236 44.6241 2.06333 44.6239 2.48129V9.53899C44.6239 10.409 45.3227 11.1147 46.187 11.1229V11.1239H51.4493L42.548 20.0737C38.108 17.0152 32.8501 15.382 27.468 15.3898C12.7007 15.3898 0.729492 27.4261 0.729492 42.2739C0.729492 57.1217 12.7007 69.1591 27.468 69.1591C42.2354 69.1591 54.2066 57.1217 54.2066 42.2739C54.2145 36.9639 52.6504 31.7716 49.7135 27.3584L58.8171 18.2052V23.8269C58.8171 24.7031 59.523 25.4129 60.3945 25.4129H67.4303C68.3007 25.4129 69.0076 24.7031 69.0076 23.8269L69.0066 23.8218V2.48746H69.0087ZM27.468 58.9131C18.3287 58.9131 10.92 51.464 10.92 42.2739C10.92 33.0848 18.3287 25.6348 27.468 25.6348C36.6073 25.6348 44.0171 33.0848 44.0171 42.2739C44.0171 51.464 36.6073 58.9131 27.468 58.9131Z" fill="white"/>
</svg>
