<svg width="29" height="29" viewBox="0 0 29 29" fill="none" xmlns="http://www.w3.org/2000/svg">
<path fill-rule="evenodd" clip-rule="evenodd" d="M18.5744 0.00332343C18.7124 0.0258864 18.8393 0.0928633 18.9359 0.194095C20.2735 1.55899 21.0391 3.12515 21.0645 4.74248C21.0897 6.35982 20.3626 7.96838 18.9258 9.37121C18.8577 9.43826 18.7755 9.48928 18.6852 9.52054C18.5948 9.55181 18.4987 9.56254 18.4037 9.55194L14.7991 9.15032C14.7023 9.13787 14.6096 9.10352 14.528 9.04989L12.8412 7.95547C11.8121 11.1176 10.7131 14.8221 9.29689 17.7852C10.3112 17.2503 11.1998 16.8808 12.0982 16.741C13.3358 16.5484 14.5259 16.8723 15.8634 17.725C17.2081 15.2779 19.1488 13.9893 21.2351 13.6485C23.505 13.2777 25.8938 13.959 28.0326 15.1245C28.133 15.1801 28.2167 15.2615 28.2749 15.3604C28.3332 15.4593 28.3639 15.572 28.3639 15.6867L28.4041 25.3156C28.4049 25.4063 28.3866 25.4961 28.3502 25.5792C28.3139 25.6623 28.2604 25.7367 28.1932 25.7976C25.3122 28.3319 21.7858 28.2608 18.233 27.0025C11.9241 29.4261 5.91953 28.6766 0.521389 24.673C0.397583 24.5792 0.311976 24.4436 0.280411 24.2915C-0.66105 19.9972 0.814064 14.1424 4.01552 9.21056C7.217 4.27868 12.2198 0.26212 18.4438 0.00332343C18.4872 -0.00110781 18.531 -0.00110781 18.5744 0.00332343ZM22.7211 16.5402C21.7695 16.5305 20.8278 16.7888 19.5885 17.3535C19.4327 17.424 19.3114 17.5536 19.2511 17.7136C19.1909 17.8737 19.1967 18.0511 19.2672 18.2069C19.3378 18.3626 19.4673 18.484 19.6274 18.5443C19.7874 18.6045 19.9648 18.5987 20.1206 18.5282C22.2136 17.5746 22.7378 17.5559 24.669 18.2571C24.8299 18.3147 25.007 18.3062 25.1616 18.2335C25.3162 18.1609 25.4358 18.03 25.4942 17.8694C25.5526 17.7088 25.545 17.5317 25.4732 17.3767C25.4013 17.2217 25.271 17.1014 25.1108 17.0422C24.2095 16.715 23.4612 16.5477 22.7211 16.5402Z" fill="#FF950A"/>
</svg>
