<svg width="28" height="28" viewBox="0 0 28 28" fill="none" xmlns="http://www.w3.org/2000/svg">
<path opacity="0.4" d="M19.7058 0H24.4463C26.4095 0 28.0002 1.60421 28.0002 3.584V8.36444C28.0002 10.3442 26.4095 11.9484 24.4463 11.9484H19.7058C17.7426 11.9484 16.1519 10.3442 16.1519 8.36444V3.584C16.1519 1.60421 17.7426 0 19.7058 0Z" fill="#677182"/>
<path fill-rule="evenodd" clip-rule="evenodd" d="M3.55479 0.000732422H8.29521C10.2584 0.000732422 11.8492 1.60495 11.8492 3.58473V8.36518C11.8492 10.345 10.2584 11.9492 8.29521 11.9492H3.55479C1.59159 11.9492 0.000808716 10.345 0.000808716 8.36518V3.58473C0.000808716 1.60495 1.59159 0.000732422 3.55479 0.000732422ZM3.55398 16.0517H8.2944C10.2576 16.0517 11.8484 17.6559 11.8484 19.6357V24.4162C11.8484 26.3946 10.2576 28.0002 8.2944 28.0002H3.55398C1.59078 28.0002 0 26.3946 0 24.4162V19.6357C0 17.6559 1.59078 16.0517 3.55398 16.0517ZM24.4463 16.0517H19.7059C17.7427 16.0517 16.1519 17.6559 16.1519 19.6357V24.4162C16.1519 26.3946 17.7427 28.0002 19.7059 28.0002H24.4463C26.4095 28.0002 28.0003 26.3946 28.0003 24.4162V19.6357C28.0003 17.6559 26.4095 16.0517 24.4463 16.0517Z" fill="#677182"/>
</svg>
