<svg width="282" height="126" viewBox="0 0 282 126" fill="none" xmlns="http://www.w3.org/2000/svg">
<path d="M8.514 119.472C8.514 120.84 7.542 121.65 5.922 121.65H3.024V117.222H5.868C7.47 117.222 8.514 118.086 8.514 119.472ZM8.19 113.838C8.19 115.116 7.308 115.872 5.778 115.872H3.024V111.804H5.742C7.344 111.804 8.19 112.596 8.19 113.838ZM10.152 119.634C10.152 118.086 9.036 116.772 7.668 116.538C8.874 116.142 9.864 115.224 9.864 113.64C9.864 111.894 8.532 110.454 5.886 110.454H1.386V123H6.066C8.658 123 10.152 121.524 10.152 119.634ZM16.6191 114.36C18.3111 114.36 19.7511 115.422 19.7331 117.348H13.5051C13.6851 115.422 15.0171 114.36 16.6191 114.36ZM21.2271 119.958H19.4631C19.1031 121.02 18.1671 121.776 16.6911 121.776C15.0171 121.776 13.6131 120.678 13.4871 118.68H21.3711C21.4071 118.338 21.4251 118.05 21.4251 117.69C21.4251 114.99 19.5531 112.974 16.6911 112.974C13.8111 112.974 11.8131 114.936 11.8131 118.05C11.8131 121.182 13.8831 123.162 16.6911 123.162C19.1391 123.162 20.7231 121.758 21.2271 119.958ZM28.746 120.3C28.746 122.28 29.736 123 31.482 123H32.958V121.614H31.752C30.744 121.614 30.384 121.272 30.384 120.3V114.486H32.958V113.136H30.384V110.652H28.746V113.136H27.468V114.486H28.746V120.3ZM34.9426 123H36.5806V117.546C36.5806 115.422 37.7326 114.378 39.4066 114.378C41.0626 114.378 42.1606 115.404 42.1606 117.42V123H43.7806V117.186C43.7806 114.36 42.0346 112.956 39.8386 112.956C38.4526 112.956 37.2286 113.514 36.5806 114.558V109.68H34.9426V123ZM50.6503 114.36C52.3423 114.36 53.7823 115.422 53.7643 117.348H47.5363C47.7163 115.422 49.0483 114.36 50.6503 114.36ZM55.2583 119.958H53.4943C53.1343 121.02 52.1983 121.776 50.7223 121.776C49.0483 121.776 47.6443 120.678 47.5183 118.68H55.4023C55.4383 118.338 55.4563 118.05 55.4563 117.69C55.4563 114.99 53.5843 112.974 50.7223 112.974C47.8423 112.974 45.8443 114.936 45.8443 118.05C45.8443 121.182 47.9143 123.162 50.7223 123.162C53.1703 123.162 54.7543 121.758 55.2583 119.958ZM62.7233 123H64.3613V114.486H66.4313V113.136H64.3613V112.434C64.3613 111.156 64.8473 110.616 66.3232 110.616V109.248C63.8033 109.248 62.7233 110.238 62.7233 112.434V113.136H61.4453V114.486H62.7233V123ZM68.3411 123H69.9791V113.136H68.3411V123ZM69.1871 111.534C69.7811 111.534 70.2671 111.048 70.2671 110.418C70.2671 109.788 69.7811 109.302 69.1871 109.302C68.5571 109.302 68.0711 109.788 68.0711 110.418C68.0711 111.048 68.5571 111.534 69.1871 111.534ZM74.4088 117.636C74.4088 115.35 75.5968 114.648 77.1628 114.648H77.5948V112.956C76.0288 112.956 74.9668 113.64 74.4088 114.738V113.136H72.7708V123H74.4088V117.636ZM86.5776 120.318C86.5056 116.79 80.7816 118.068 80.7816 115.728C80.7816 114.936 81.5016 114.36 82.7076 114.36C84.0216 114.36 84.7776 115.08 84.8496 116.07H86.4876C86.3796 114.144 84.9396 112.974 82.7616 112.974C80.5656 112.974 79.1436 114.216 79.1436 115.728C79.1436 119.4 84.9756 118.122 84.9756 120.318C84.9756 121.128 84.2556 121.776 82.9596 121.776C81.5736 121.776 80.7276 121.056 80.6376 120.102H78.9456C79.0536 121.902 80.6736 123.162 82.9776 123.162C85.1556 123.162 86.5776 121.938 86.5776 120.318ZM89.2499 120.3C89.2499 122.28 90.2399 123 91.9859 123H93.4619V121.614H92.2559C91.2479 121.614 90.8879 121.272 90.8879 120.3V114.486H93.4619V113.136H90.8879V110.652H89.2499V113.136H87.9719V114.486H89.2499V120.3ZM100.605 120.3C100.605 122.28 101.595 123 103.341 123H104.817V121.614H103.611C102.603 121.614 102.243 121.272 102.243 120.3V114.486H104.817V113.136H102.243V110.652H100.605V113.136H99.3274V114.486H100.605V120.3ZM116.162 118.05C116.162 114.936 113.984 112.974 111.176 112.974C108.386 112.974 106.19 114.936 106.19 118.05C106.19 121.182 108.314 123.162 111.104 123.162C113.912 123.162 116.162 121.182 116.162 118.05ZM107.864 118.05C107.864 115.566 109.43 114.396 111.158 114.396C112.85 114.396 114.488 115.566 114.488 118.05C114.488 120.552 112.814 121.722 111.104 121.722C109.394 121.722 107.864 120.552 107.864 118.05ZM123.115 123H124.753V109.68H123.115V123ZM131.738 114.36C133.43 114.36 134.87 115.422 134.852 117.348H128.624C128.804 115.422 130.136 114.36 131.738 114.36ZM136.346 119.958H134.582C134.222 121.02 133.286 121.776 131.81 121.776C130.136 121.776 128.732 120.678 128.606 118.68H136.49C136.526 118.338 136.544 118.05 136.544 117.69C136.544 114.99 134.672 112.974 131.81 112.974C128.93 112.974 126.932 114.936 126.932 118.05C126.932 121.182 129.002 123.162 131.81 123.162C134.258 123.162 135.842 121.758 136.346 119.958ZM138.094 118.032C138.094 121.092 140.128 123.162 142.756 123.162C144.574 123.162 145.852 122.226 146.446 121.164V123H148.102V113.136H146.446V114.936C145.87 113.91 144.61 112.974 142.774 112.974C140.128 112.974 138.094 114.954 138.094 118.032ZM146.446 118.05C146.446 120.372 144.898 121.722 143.098 121.722C141.298 121.722 139.768 120.354 139.768 118.032C139.768 115.71 141.298 114.396 143.098 114.396C144.898 114.396 146.446 115.764 146.446 118.05ZM149.7 113.136L153.57 123H155.478L159.348 113.136H157.602L154.542 121.488L151.464 113.136H149.7ZM165.154 114.36C166.846 114.36 168.286 115.422 168.268 117.348H162.04C162.22 115.422 163.552 114.36 165.154 114.36ZM169.762 119.958H167.998C167.638 121.02 166.702 121.776 165.226 121.776C163.552 121.776 162.148 120.678 162.022 118.68H169.906C169.942 118.338 169.96 118.05 169.96 117.69C169.96 114.99 168.088 112.974 165.226 112.974C162.346 112.974 160.348 114.936 160.348 118.05C160.348 121.182 162.418 123.162 165.226 123.162C167.674 123.162 169.258 121.758 169.762 119.958ZM176.309 118.032C176.309 121.092 178.343 123.162 180.971 123.162C182.789 123.162 184.067 122.226 184.661 121.164V123H186.317V113.136H184.661V114.936C184.085 113.91 182.825 112.974 180.989 112.974C178.343 112.974 176.309 114.954 176.309 118.032ZM184.661 118.05C184.661 120.372 183.113 121.722 181.313 121.722C179.513 121.722 177.983 120.354 177.983 118.032C177.983 115.71 179.513 114.396 181.313 114.396C183.113 114.396 184.661 115.764 184.661 118.05ZM193.272 118.05C193.272 121.182 195.27 123.162 198.078 123.162C200.526 123.162 202.128 121.794 202.632 119.832H200.868C200.508 121.074 199.536 121.776 198.078 121.776C196.278 121.776 194.946 120.498 194.946 118.05C194.946 115.638 196.278 114.36 198.078 114.36C199.536 114.36 200.526 115.116 200.868 116.304H202.632C202.128 114.234 200.526 112.974 198.078 112.974C195.27 112.974 193.272 114.954 193.272 118.05ZM214.178 118.05C214.178 114.936 212 112.974 209.192 112.974C206.402 112.974 204.206 114.936 204.206 118.05C204.206 121.182 206.33 123.162 209.12 123.162C211.928 123.162 214.178 121.182 214.178 118.05ZM205.88 118.05C205.88 115.566 207.446 114.396 209.174 114.396C210.866 114.396 212.504 115.566 212.504 118.05C212.504 120.552 210.83 121.722 209.12 121.722C207.41 121.722 205.88 120.552 205.88 118.05ZM230.569 123H232.189V117.186C232.189 114.36 230.443 112.956 228.193 112.956C226.681 112.956 225.277 113.73 224.701 115.152C224.053 113.676 222.703 112.956 221.083 112.956C219.787 112.956 218.617 113.514 217.969 114.558V113.136H216.331V123H217.969V117.564C217.969 115.44 219.103 114.378 220.759 114.378C222.379 114.378 223.459 115.404 223.459 117.42V123H225.079V117.564C225.079 115.44 226.213 114.378 227.869 114.378C229.489 114.378 230.569 115.404 230.569 117.42V123ZM249.114 123H250.734V117.186C250.734 114.36 248.988 112.956 246.738 112.956C245.226 112.956 243.822 113.73 243.246 115.152C242.598 113.676 241.248 112.956 239.628 112.956C238.332 112.956 237.162 113.514 236.514 114.558V113.136H234.876V123H236.514V117.564C236.514 115.44 237.648 114.378 239.304 114.378C240.924 114.378 242.004 115.404 242.004 117.42V123H243.624V117.564C243.624 115.44 244.758 114.378 246.414 114.378C248.034 114.378 249.114 115.404 249.114 117.42V123ZM257.615 114.36C259.307 114.36 260.747 115.422 260.729 117.348H254.501C254.681 115.422 256.013 114.36 257.615 114.36ZM262.223 119.958H260.459C260.099 121.02 259.163 121.776 257.687 121.776C256.013 121.776 254.609 120.678 254.483 118.68H262.367C262.403 118.338 262.421 118.05 262.421 117.69C262.421 114.99 260.549 112.974 257.687 112.974C254.807 112.974 252.809 114.936 252.809 118.05C252.809 121.182 254.879 123.162 257.687 123.162C260.135 123.162 261.719 121.758 262.223 119.958ZM271.801 123H273.421V117.186C273.421 114.36 271.675 112.956 269.389 112.956C268.057 112.956 266.869 113.514 266.221 114.54V113.136H264.583V123H266.221V117.546C266.221 115.422 267.373 114.378 269.047 114.378C270.703 114.378 271.801 115.404 271.801 117.42V123ZM276.457 120.3C276.457 122.28 277.447 123 279.193 123H280.669V121.614H279.463C278.455 121.614 278.095 121.272 278.095 120.3V114.486H280.669V113.136H278.095V110.652H276.457V113.136H275.179V114.486H276.457V120.3Z" fill="#878B90"/>
<path d="M98 0V53.3946H113.126V68.8428L136.699 53.3946H171.391V0H98ZM174.844 11.7371V18.4561H177.423V56.5335H164.738V66.7116L150.022 57.0689L149.21 56.5336H138.118L127.867 63.2526H147.273L166.248 75.6825L171.314 79V63.2525H184V11.7371H174.844Z" fill="#878B90"/>
</svg>
