<svg width="103" height="103" viewBox="0 0 103 103" fill="none" xmlns="http://www.w3.org/2000/svg">
<g opacity="0.75">
<path opacity="0.25" d="M51.5005 101.767C79.2617 101.767 101.767 79.2622 101.767 51.5009C101.767 23.7397 79.2617 1.23474 51.5005 1.23474C23.7392 1.23474 1.23425 23.7397 1.23425 51.5009C1.23425 79.2622 23.7392 101.767 51.5005 101.767Z" stroke="#222222"/>
</g>
<g opacity="0.5">
<path opacity="0.5" d="M51.5001 91.8299C73.7737 91.8299 91.83 73.7736 91.83 51.5C91.83 29.2265 73.7737 11.1702 51.5001 11.1702C29.2266 11.1702 11.1703 29.2265 11.1703 51.5C11.1703 73.7736 29.2266 91.8299 51.5001 91.8299Z" stroke="#414141" stroke-width="1.5"/>
</g>
<g filter="url(#filter0_b)">
<path d="M51.5002 79.0879C66.7366 79.0879 79.0882 66.7363 79.0882 51.4999C79.0882 36.2635 66.7366 23.9119 51.5002 23.9119C36.2638 23.9119 23.9122 36.2635 23.9122 51.4999C23.9122 66.7363 36.2638 79.0879 51.5002 79.0879Z" fill="black" fill-opacity="0.28"/>
<path d="M61.7797 50.1129C62.0645 50.2769 62.301 50.5131 62.4654 50.7976C62.6298 51.0821 62.7164 51.4049 62.7164 51.7335C62.7164 52.0621 62.6298 52.385 62.4654 52.6695C62.301 52.954 62.0645 53.1902 61.7797 53.3542L45.889 62.5092C45.6046 62.6734 45.282 62.7598 44.9536 62.7598C44.6252 62.7597 44.3026 62.6732 44.0183 62.509C43.7339 62.3447 43.4978 62.1085 43.3337 61.824C43.1696 61.5396 43.0833 61.2169 43.0835 60.8885V42.5785C43.0833 42.2501 43.1696 41.9275 43.3337 41.643C43.4978 41.3586 43.7339 41.1223 44.0183 40.9581C44.3026 40.7938 44.6252 40.7073 44.9536 40.7073C45.282 40.7072 45.6046 40.7937 45.889 40.9579L61.7797 50.1129Z" fill="white"/>
</g>
<defs>
<filter id="filter0_b" x="19.9122" y="19.9119" width="63.1759" height="63.1759" filterUnits="userSpaceOnUse" color-interpolation-filters="sRGB">
<feFlood flood-opacity="0" result="BackgroundImageFix"/>
<feGaussianBlur in="BackgroundImage" stdDeviation="2"/>
<feComposite in2="SourceAlpha" operator="in" result="effect1_backgroundBlur"/>
<feBlend mode="normal" in="SourceGraphic" in2="effect1_backgroundBlur" result="shape"/>
</filter>
</defs>
</svg>
