<svg width="30" height="30" viewBox="0 0 30 30" fill="none" xmlns="http://www.w3.org/2000/svg">
<path d="M7.88042 2.90507L5.64676 3.79668L7.38416 8.1037C8.18516 7.91283 9.00689 7.82288 9.83022 7.83595L7.88042 2.90507ZM14.727 11.215L14.1338 13.5406L22.2732 15.6167L22.1872 15.9539L15.9522 16.1221L15.1247 19.3662C14.8608 20.4011 14.2958 21.3345 13.5014 22.0483C12.707 22.7621 11.7187 23.2243 10.6616 23.3765C9.60446 23.5287 8.52596 23.3639 7.56245 22.9031C6.59895 22.4424 5.79373 21.7062 5.2486 20.7878C4.70348 19.8693 4.44295 18.8099 4.49994 17.7434C4.55694 16.6769 4.92891 15.6513 5.56882 14.7962C6.20872 13.9411 7.08782 13.2949 8.09495 12.9395C9.10208 12.584 10.192 12.5352 11.2269 12.7991L11.8083 12.9474L12.4014 10.6219L11.8201 10.4736C10.3252 10.0923 8.75089 10.1628 7.29615 10.6763C5.84141 11.1898 4.5716 12.1231 3.64729 13.3582C2.72299 14.5933 2.18569 16.0748 2.10336 17.6153C2.02103 19.1558 2.39736 20.6861 3.18476 22.0127C3.97216 23.3394 5.13526 24.4027 6.52699 25.0683C7.91872 25.7339 9.47656 25.9718 11.0035 25.752C12.5305 25.5322 13.958 24.8646 15.1055 23.8335C16.253 22.8024 17.069 21.4542 17.4503 19.9594L17.9218 18.1106L26.6277 17.9658L27.5175 14.4775L14.727 11.215ZM22.3918 6.60646L18.634 9.73477L21.5061 10.4673L23.9255 8.459L22.3918 6.60646ZM14.4775 2.48247L12.9946 8.29633L15.3202 8.8895L16.8031 3.07564L14.4775 2.48247Z" fill="white"/>
</svg>
