<svg width="40" height="40" viewBox="0 0 40 40" fill="none" xmlns="http://www.w3.org/2000/svg">
<g filter="url(#filter0_d)">
<path d="M4.15 1L1 4.15L7.3 10.45L3.25 14.5H14.5V3.25L10.45 7.3L4.15 1ZM30.7 10.45L37 4.15L33.85 1L27.55 7.3L23.5 3.25V14.5H34.75L30.7 10.45ZM7.3 27.55L1 33.85L4.15 37L10.45 30.7L14.5 34.75V23.5H3.25L7.3 27.55ZM34.75 23.5H23.5V34.75L27.55 30.7L33.85 37L37 33.85L30.7 27.55L34.75 23.5Z" fill="white"/>
</g>
<defs>
<filter id="filter0_d" x="0" y="0" width="40" height="40" filterUnits="userSpaceOnUse" color-interpolation-filters="sRGB">
<feFlood flood-opacity="0" result="BackgroundImageFix"/>
<feColorMatrix in="SourceAlpha" type="matrix" values="0 0 0 0 0 0 0 0 0 0 0 0 0 0 0 0 0 0 127 0" result="hardAlpha"/>
<feOffset dx="1" dy="1"/>
<feGaussianBlur stdDeviation="1"/>
<feComposite in2="hardAlpha" operator="out"/>
<feColorMatrix type="matrix" values="0 0 0 0 0 0 0 0 0 0 0 0 0 0 0 0 0 0 0.6 0"/>
<feBlend mode="normal" in2="BackgroundImageFix" result="effect1_dropShadow"/>
<feBlend mode="normal" in="SourceGraphic" in2="effect1_dropShadow" result="shape"/>
</filter>
</defs>
</svg>
