<svg width="20" height="21" viewBox="0 0 20 21" fill="none" xmlns="http://www.w3.org/2000/svg">
<path d="M12.0039 6.10024L13.8672 4.23602C13.6467 4.01565 13.484 3.74431 13.3935 3.44604C13.303 3.14777 13.2874 2.83178 13.3482 2.52605C13.4089 2.22032 13.5441 1.93429 13.7418 1.6933C13.9395 1.45231 14.1936 1.26379 14.4815 1.14445C14.7695 1.0251 15.0824 0.978605 15.3926 1.00908C15.7029 1.03956 16.0008 1.14607 16.26 1.31918C16.5192 1.49229 16.7317 1.72666 16.8787 2.00152C17.0257 2.27638 17.1027 2.58325 17.1028 2.89496C17.4146 2.89473 17.7216 2.97142 17.9967 3.11823C18.2717 3.26504 18.5063 3.47743 18.6797 3.73659C18.853 3.99574 18.9598 4.29366 18.9904 4.60393C19.0211 4.9142 18.9748 5.22725 18.8556 5.51534C18.7363 5.80342 18.5479 6.05765 18.3069 6.25549C18.0659 6.45332 17.7799 6.58866 17.4741 6.64951C17.1683 6.71035 16.8522 6.69483 16.5538 6.60431C16.2555 6.51379 15.9841 6.35107 15.7636 6.13057L14.0387 7.85642" stroke="#F48433" stroke-width="2" stroke-linecap="round" stroke-linejoin="round"/>
<path d="M4.69164 15.7808C7.28248 18.3716 10.2829 19.5718 11.3932 18.4614C12.5036 17.3511 11.3034 14.3507 8.7126 11.7598C6.12177 9.16901 3.12136 7.96885 2.011 9.07921C0.900647 10.1896 2.10081 13.19 4.69164 15.7808Z" stroke="#F48433" stroke-width="2" stroke-linecap="round" stroke-linejoin="round"/>
<path d="M6.20508 13.3202L7.15283 14.2679" stroke="#F48433" stroke-width="2" stroke-linecap="round" stroke-linejoin="round"/>
<path d="M11.3915 18.4617C15.0925 14.7598 15.9929 9.65905 13.4017 7.06886C10.8115 4.47771 5.71073 5.37807 2.00977 9.07903" stroke="#F48433" stroke-width="2" stroke-linecap="round" stroke-linejoin="round"/>
</svg>
