<svg width="31" height="31" viewBox="0 0 31 31" fill="none" xmlns="http://www.w3.org/2000/svg">
<rect width="31" height="31" fill="#344150" fill-opacity="0.69"/>
<path d="M9.95351 18.95C10.6903 18.9478 11.3991 18.6681 11.9389 18.1666L17.2118 21.1796C17.0351 21.87 17.113 22.6009 17.4312 23.2385C17.7494 23.8762 18.2866 24.3779 18.9444 24.6518C19.6023 24.9258 20.3368 24.9536 21.0135 24.7302C21.6902 24.5069 22.2639 24.0473 22.6294 23.4356C22.9949 22.8238 23.1279 22.1009 23.004 21.3991C22.8801 20.6974 22.5076 20.0637 21.9547 19.6142C21.4018 19.1646 20.7054 18.9292 19.9932 18.9511C19.2809 18.973 18.6003 19.2507 18.076 19.7333L12.8031 16.7203C12.8587 16.5098 12.889 16.2916 12.8941 16.0734L18.0743 13.1127C18.5731 13.5665 19.2128 13.835 19.8861 13.873C20.5594 13.9111 21.2253 13.7165 21.7721 13.3218C22.3189 12.9271 22.7133 12.3564 22.8892 11.7054C23.0651 11.0544 23.0118 10.3627 22.7381 9.74635C22.4645 9.13 21.9872 8.62651 21.3864 8.32035C20.7855 8.01418 20.0977 7.92397 19.4382 8.06484C18.7787 8.20572 18.1877 8.56911 17.7644 9.09405C17.3411 9.61899 17.1112 10.2735 17.1133 10.9479C17.1166 11.1905 17.1495 11.4322 17.2118 11.6664L12.424 14.4014C12.1464 13.9719 11.7618 13.622 11.308 13.3861C10.8542 13.1501 10.3468 13.0363 9.83573 13.0558C9.32465 13.0753 8.82743 13.2275 8.39292 13.4973C7.95842 13.7671 7.60158 14.1453 7.35747 14.5947C7.11336 15.0442 6.99037 15.5494 7.00059 16.0607C7.01081 16.5721 7.15388 17.072 7.41575 17.5113C7.67762 17.9506 8.04928 18.3143 8.49422 18.5665C8.93915 18.8188 9.44205 18.9509 9.95351 18.95Z" fill="white"/>
</svg>
