<svg width="25" height="23" viewBox="0 0 25 23" fill="none" xmlns="http://www.w3.org/2000/svg">
<path d="M13 20C12.994 20.2663 13.0412 20.5312 13.139 20.779C13.2367 21.0269 13.383 21.2527 13.5692 21.4432C13.7554 21.6337 13.9778 21.7851 14.2233 21.8885C14.4689 21.9919 14.7326 22.0451 14.999 22.0452C15.2654 22.0453 15.5291 21.9921 15.7747 21.8889C16.0203 21.7856 16.2428 21.6343 16.4291 21.4439C16.6154 21.2535 16.7618 21.0277 16.8596 20.78C16.9575 20.5322 17.0049 20.2673 16.999 20.001C16.9874 19.4784 16.7718 18.9812 16.3982 18.6156C16.0245 18.2501 15.5227 18.0453 15 18.0452C14.4773 18.0451 13.9753 18.2496 13.6015 18.6149C13.2277 18.9803 13.0118 19.4774 13 20ZM3 20C3 20.5304 3.21071 21.0391 3.58579 21.4142C3.96086 21.7893 4.46957 22 5 22C5.53043 22 6.03914 21.7893 6.41421 21.4142C6.78929 21.0391 7 20.5304 7 20C7 19.4696 6.78929 18.9609 6.41421 18.5858C6.03914 18.2107 5.53043 18 5 18C4.46957 18 3.96086 18.2107 3.58579 18.5858C3.21071 18.9609 3 19.4696 3 20ZM6.547 15.172L17.615 12.01C17.7232 11.9739 17.818 11.9058 17.8867 11.8148C17.9554 11.7237 17.9949 11.614 18 11.5V6H4V4.4C4 4.18 3.819 4 3.601 4H0.399C0.293168 4.00053 0.191836 4.04287 0.117094 4.1178C0.0423526 4.19273 0.000262608 4.29417 0 4.4L0 6H2L3.91 14.957L4 15.9V17.549C4 17.768 4.18 17.949 4.4 17.949H17.6C17.82 17.949 18 17.767 18 17.549V16H6.752C5.602 16 5.578 15.449 6.547 15.172Z" fill="white"/>
<path d="M22.55 0H20.45V2.44863H18V4.55137H20.45V7H22.55V4.55137H25V2.44863H22.55V0Z" fill="white"/>
</svg>
