<svg width="28" height="28" viewBox="0 0 28 28" fill="none" xmlns="http://www.w3.org/2000/svg">
<path d="M0 18.2V0H18.2V18.2H0ZM8.4 12.95L6.72 10.64L4.2 14H14L10.78 9.8L8.4 12.95ZM21 28C19.8333 28 18.8417 27.5917 18.025 26.775C17.2083 25.9583 16.8 24.9667 16.8 23.8C16.8 22.6333 17.2083 21.6417 18.025 20.825C18.8417 20.0083 19.8333 19.6 21 19.6C21.2567 19.6 21.4961 19.6233 21.7182 19.67C21.9403 19.7167 22.1676 19.775 22.4 19.845V12.6H28V15.4H25.2V23.8C25.2 24.9667 24.7917 25.9583 23.975 26.775C23.1583 27.5917 22.1667 28 21 28Z" fill="white"/>
</svg>
