<svg width="29" height="29" viewBox="0 0 29 29" fill="none" xmlns="http://www.w3.org/2000/svg">
<path d="M24.5 2C24.5 2 22 7.85929 22 12.7139C22 14.2686 22.5312 15.5686 23.25 16.8639C24.075 18.3545 25.1468 19.8373 25.9328 21.6919C26.5562 23.1653 26.9999 24.87 26.9999 26.9997" stroke="white" stroke-width="2.5" stroke-linecap="square" stroke-linejoin="round"/>
<path d="M4.50031 2C4.50031 2 7.00028 7.85929 7.00028 12.7139C7.00028 14.2686 6.46904 15.5686 5.7503 16.8639C4.92531 18.3545 3.85345 19.8373 3.06752 21.6919C2.3504 23.3689 1.9871 25.1758 2.00035 26.9997" stroke="white" stroke-width="2.5" stroke-linecap="square" stroke-linejoin="round"/>
<path d="M5.75098 16.8643H23.2507" stroke="white" stroke-width="2.5" stroke-linecap="square" stroke-linejoin="round"/>
<path d="M3.06738 21.6934C3.06738 21.6934 12.0001 23.4261 14.5 26.9995C17 23.4277 25.9327 21.6934 25.9327 21.6934" stroke="white" stroke-width="2.5" stroke-linecap="square" stroke-linejoin="round"/>
</svg>
