<svg width="30" height="35" viewBox="0 0 37 34" fill="none" xmlns="http://www.w3.org/2000/svg">
<path d="M31.3636 0.193054H26.9965C27.6205 1.45532 27.9719 2.87541 27.9719 4.37622V8.05599H9.02807V4.37622C9.02807 2.87541 9.3795 1.45532 10.0035 0.193054H5.63636C2.52843 0.193054 0 2.72148 0 5.82941V34H17.416V25.9805H19.584V34H37V5.82941C37 2.72148 34.4716 0.193054 31.3636 0.193054ZM15.0427 17.427L12.4761 28.1601C12.0765 29.8314 10.5972 30.9987 8.8787 30.9987C6.83915 30.9987 5.17993 29.3394 5.17993 27.2999V16.2641C5.17993 13.5072 7.42291 11.2642 10.1798 11.2642C11.7202 11.2642 13.1508 11.9578 14.1049 13.167C15.0591 14.3761 15.401 15.9289 15.0427 17.427ZM31.8201 27.2999C31.8201 29.3394 30.1609 30.9987 28.1213 30.9987H28.1212C26.4028 30.9987 24.9235 29.8314 24.5239 28.1601L21.9573 17.427C21.599 15.929 21.9408 14.3762 22.895 13.167C23.8492 11.9578 25.2798 11.2642 26.8201 11.2642C29.577 11.2642 31.82 13.5072 31.82 16.2641V27.2999H31.8201Z" fill="#FFAE42"/>
</svg>
