<svg width="44" height="40" viewBox="0 0 44 40" fill="none" xmlns="http://www.w3.org/2000/svg">
<path d="M10.6016 1.21294L6.83553 2.71623L9.76487 9.97809C11.1154 9.65627 12.5009 9.50461 13.8891 9.52665L10.6016 1.21294ZM22.1452 15.224L21.1451 19.1449L34.8686 22.6454L34.7235 23.2139L24.211 23.4975L22.8158 28.9673C22.3708 30.7121 21.4183 32.2859 20.0789 33.4894C18.7394 34.6929 17.0731 35.4723 15.2908 35.7288C13.5084 35.9854 11.69 35.7076 10.0655 34.9307C8.44097 34.1538 7.08332 32.9126 6.16421 31.3641C5.24511 29.8156 4.80584 28.0293 4.90194 26.2311C4.99804 24.4329 5.6252 22.7037 6.70411 21.2619C7.78303 19.8202 9.26523 18.7308 10.9633 18.1314C12.6614 17.5321 14.499 17.4497 16.2439 17.8948L17.2241 18.1448L18.2243 14.2238L17.244 13.9738C14.7236 13.331 12.0693 13.4499 9.61649 14.3156C7.16372 15.1813 5.02276 16.7549 3.46433 18.8374C1.90589 20.9199 0.999994 23.4178 0.861182 26.0152C0.722369 28.6125 1.35688 31.1927 2.68447 33.4294C4.01207 35.6662 5.97312 37.459 8.31964 38.5812C10.6662 39.7034 13.2928 40.1046 15.8673 39.7341C18.4418 39.3635 20.8486 38.2378 22.7834 36.4993C24.7182 34.7609 26.094 32.4878 26.7368 29.9674L27.5319 26.8502L42.2105 26.6061L43.7106 20.7246L22.1452 15.224ZM35.0685 7.45366L28.7328 12.7281L33.5752 13.9633L37.6545 10.5771L35.0685 7.45366ZM21.7247 0.500408L19.2244 10.3029L23.1454 11.303L25.6456 1.50052L21.7247 0.500408Z" fill="white"/>
</svg>
