<svg width="156" height="25" viewBox="0 0 156 25" fill="none" xmlns="http://www.w3.org/2000/svg">
<path d="M49.248 7.848L46.016 19H44.384L41.792 10.024L39.104 19L37.488 19.016L34.368 7.848H35.92L38.352 17.304L41.04 7.848H42.672L45.232 17.272L47.68 7.848H49.248ZM54.6654 19.144C53.844 19.144 53.0974 18.9573 52.4254 18.584C51.764 18.2107 51.2414 17.6827 50.8574 17C50.484 16.3067 50.2974 15.5067 50.2974 14.6C50.2974 13.704 50.4894 12.9147 50.8734 12.232C51.268 11.5387 51.8014 11.0107 52.4734 10.648C53.1454 10.2747 53.8974 10.088 54.7294 10.088C55.5614 10.088 56.3134 10.2747 56.9854 10.648C57.6574 11.0107 58.1854 11.5333 58.5694 12.216C58.964 12.8987 59.1614 13.6933 59.1614 14.6C59.1614 15.5067 58.9587 16.3067 58.5534 17C58.1587 17.6827 57.62 18.2107 56.9374 18.584C56.2547 18.9573 55.4974 19.144 54.6654 19.144ZM54.6654 17.864C55.188 17.864 55.6787 17.7413 56.1374 17.496C56.596 17.2507 56.964 16.8827 57.2414 16.392C57.5294 15.9013 57.6734 15.304 57.6734 14.6C57.6734 13.896 57.5347 13.2987 57.2574 12.808C56.98 12.3173 56.6174 11.9547 56.1694 11.72C55.7214 11.4747 55.236 11.352 54.7134 11.352C54.18 11.352 53.6894 11.4747 53.2414 11.72C52.804 11.9547 52.452 12.3173 52.1854 12.808C51.9187 13.2987 51.7854 13.896 51.7854 14.6C51.7854 15.3147 51.9134 15.9173 52.1694 16.408C52.436 16.8987 52.788 17.2667 53.2254 17.512C53.6627 17.7467 54.1427 17.864 54.6654 17.864ZM62.5318 11.656C62.7878 11.1547 63.1504 10.7653 63.6198 10.488C64.0998 10.2107 64.6811 10.072 65.3638 10.072V11.576H64.9798C63.3478 11.576 62.5318 12.4613 62.5318 14.232V19H61.0758V10.232H62.5318V11.656ZM71.9405 19L68.5005 15.128V19H67.0445V7.16H68.5005V14.12L71.8765 10.232H73.9085L69.7805 14.6L73.9245 19H71.9405ZM79.1029 19.144C78.2815 19.144 77.5349 18.9573 76.8629 18.584C76.2015 18.2107 75.6789 17.6827 75.2949 17C74.9215 16.3067 74.7349 15.5067 74.7349 14.6C74.7349 13.704 74.9269 12.9147 75.3109 12.232C75.7055 11.5387 76.2389 11.0107 76.9109 10.648C77.5829 10.2747 78.3349 10.088 79.1669 10.088C79.9989 10.088 80.7509 10.2747 81.4229 10.648C82.0949 11.0107 82.6229 11.5333 83.0069 12.216C83.4015 12.8987 83.5989 13.6933 83.5989 14.6C83.5989 15.5067 83.3962 16.3067 82.9909 17C82.5962 17.6827 82.0575 18.2107 81.3749 18.584C80.6922 18.9573 79.9349 19.144 79.1029 19.144ZM79.1029 17.864C79.6255 17.864 80.1162 17.7413 80.5749 17.496C81.0335 17.2507 81.4015 16.8827 81.6789 16.392C81.9669 15.9013 82.1109 15.304 82.1109 14.6C82.1109 13.896 81.9722 13.2987 81.6949 12.808C81.4175 12.3173 81.0549 11.9547 80.6069 11.72C80.1589 11.4747 79.6735 11.352 79.1509 11.352C78.6175 11.352 78.1269 11.4747 77.6789 11.72C77.2415 11.9547 76.8895 12.3173 76.6229 12.808C76.3562 13.2987 76.2229 13.896 76.2229 14.6C76.2229 15.3147 76.3509 15.9173 76.6069 16.408C76.8735 16.8987 77.2255 17.2667 77.6629 17.512C78.1002 17.7467 78.5802 17.864 79.1029 17.864ZM93.2893 10.232V19H91.8333V17.704C91.5559 18.152 91.1666 18.504 90.6653 18.76C90.1746 19.0053 89.6306 19.128 89.0333 19.128C88.3506 19.128 87.7373 18.9893 87.1933 18.712C86.6493 18.424 86.2173 17.9973 85.8973 17.432C85.5879 16.8667 85.4333 16.1787 85.4333 15.368V10.232H86.8733V15.176C86.8733 16.04 87.0919 16.7067 87.5293 17.176C87.9666 17.6347 88.5639 17.864 89.3213 17.864C90.0999 17.864 90.7133 17.624 91.1613 17.144C91.6093 16.664 91.8333 15.9653 91.8333 15.048V10.232H93.2893ZM97.5236 11.432V16.6C97.5236 17.0267 97.6143 17.3307 97.7956 17.512C97.977 17.6827 98.2916 17.768 98.7396 17.768H99.8116V19H98.4996C97.689 19 97.081 18.8133 96.6756 18.44C96.2703 18.0667 96.0676 17.4533 96.0676 16.6V11.432H94.9316V10.232H96.0676V8.024H97.5236V10.232H99.8116V11.432H97.5236ZM109.377 19.112C108.641 19.112 107.98 18.984 107.393 18.728C106.817 18.4613 106.364 18.0987 106.033 17.64C105.703 17.1707 105.532 16.632 105.521 16.024H107.073C107.127 16.5467 107.34 16.9893 107.713 17.352C108.097 17.704 108.652 17.88 109.377 17.88C110.071 17.88 110.615 17.7093 111.009 17.368C111.415 17.016 111.617 16.568 111.617 16.024C111.617 15.5973 111.5 15.2507 111.265 14.984C111.031 14.7173 110.737 14.5147 110.385 14.376C110.033 14.2373 109.559 14.088 108.961 13.928C108.225 13.736 107.633 13.544 107.185 13.352C106.748 13.16 106.369 12.8613 106.049 12.456C105.74 12.04 105.585 11.4853 105.585 10.792C105.585 10.184 105.74 9.64533 106.049 9.176C106.359 8.70667 106.791 8.344 107.345 8.088C107.911 7.832 108.556 7.704 109.281 7.704C110.327 7.704 111.18 7.96533 111.841 8.488C112.513 9.01067 112.892 9.704 112.977 10.568H111.377C111.324 10.1413 111.1 9.768 110.705 9.448C110.311 9.11733 109.788 8.952 109.137 8.952C108.529 8.952 108.033 9.112 107.649 9.432C107.265 9.74133 107.073 10.1787 107.073 10.744C107.073 11.1493 107.185 11.48 107.409 11.736C107.644 11.992 107.927 12.1893 108.257 12.328C108.599 12.456 109.073 12.6053 109.681 12.776C110.417 12.9787 111.009 13.1813 111.457 13.384C111.905 13.576 112.289 13.88 112.609 14.296C112.929 14.7013 113.089 15.256 113.089 15.96C113.089 16.504 112.945 17.016 112.657 17.496C112.369 17.976 111.943 18.3653 111.377 18.664C110.812 18.9627 110.145 19.112 109.377 19.112ZM117.008 11.432V16.6C117.008 17.0267 117.099 17.3307 117.28 17.512C117.461 17.6827 117.776 17.768 118.224 17.768H119.296V19H117.984C117.173 19 116.565 18.8133 116.16 18.44C115.755 18.0667 115.552 17.4533 115.552 16.6V11.432H114.416V10.232H115.552V8.024H117.008V10.232H119.296V11.432H117.008ZM128.836 10.232V19H127.38V17.704C127.103 18.152 126.713 18.504 126.212 18.76C125.721 19.0053 125.177 19.128 124.58 19.128C123.897 19.128 123.284 18.9893 122.74 18.712C122.196 18.424 121.764 17.9973 121.444 17.432C121.135 16.8667 120.98 16.1787 120.98 15.368V10.232H122.42V15.176C122.42 16.04 122.639 16.7067 123.076 17.176C123.513 17.6347 124.111 17.864 124.868 17.864C125.647 17.864 126.26 17.624 126.708 17.144C127.156 16.664 127.38 15.9653 127.38 15.048V10.232H128.836ZM130.751 14.584C130.751 13.688 130.932 12.904 131.295 12.232C131.657 11.5493 132.153 11.0213 132.783 10.648C133.423 10.2747 134.137 10.088 134.927 10.088C135.609 10.088 136.244 10.248 136.831 10.568C137.417 10.8773 137.865 11.288 138.175 11.8V7.16H139.647V19H138.175V17.352C137.887 17.8747 137.46 18.3067 136.895 18.648C136.329 18.9787 135.668 19.144 134.911 19.144C134.132 19.144 133.423 18.952 132.783 18.568C132.153 18.184 131.657 17.6453 131.295 16.952C130.932 16.2587 130.751 15.4693 130.751 14.584ZM138.175 14.6C138.175 13.9387 138.041 13.3627 137.775 12.872C137.508 12.3813 137.145 12.008 136.687 11.752C136.239 11.4853 135.743 11.352 135.199 11.352C134.655 11.352 134.159 11.48 133.711 11.736C133.263 11.992 132.905 12.3653 132.639 12.856C132.372 13.3467 132.239 13.9227 132.239 14.584C132.239 15.256 132.372 15.8427 132.639 16.344C132.905 16.8347 133.263 17.2133 133.711 17.48C134.159 17.736 134.655 17.864 135.199 17.864C135.743 17.864 136.239 17.736 136.687 17.48C137.145 17.2133 137.508 16.8347 137.775 16.344C138.041 15.8427 138.175 15.2613 138.175 14.6ZM142.859 8.808C142.582 8.808 142.347 8.712 142.155 8.52C141.963 8.328 141.867 8.09333 141.867 7.816C141.867 7.53867 141.963 7.304 142.155 7.112C142.347 6.92 142.582 6.824 142.859 6.824C143.126 6.824 143.35 6.92 143.531 7.112C143.723 7.304 143.819 7.53867 143.819 7.816C143.819 8.09333 143.723 8.328 143.531 8.52C143.35 8.712 143.126 8.808 142.859 8.808ZM143.563 10.232V19H142.107V10.232H143.563ZM149.869 19.144C149.047 19.144 148.301 18.9573 147.629 18.584C146.967 18.2107 146.445 17.6827 146.061 17C145.687 16.3067 145.501 15.5067 145.501 14.6C145.501 13.704 145.693 12.9147 146.077 12.232C146.471 11.5387 147.005 11.0107 147.677 10.648C148.349 10.2747 149.101 10.088 149.933 10.088C150.765 10.088 151.517 10.2747 152.189 10.648C152.861 11.0107 153.389 11.5333 153.773 12.216C154.167 12.8987 154.365 13.6933 154.365 14.6C154.365 15.5067 154.162 16.3067 153.757 17C153.362 17.6827 152.823 18.2107 152.141 18.584C151.458 18.9573 150.701 19.144 149.869 19.144ZM149.869 17.864C150.391 17.864 150.882 17.7413 151.341 17.496C151.799 17.2507 152.167 16.8827 152.445 16.392C152.733 15.9013 152.877 15.304 152.877 14.6C152.877 13.896 152.738 13.2987 152.461 12.808C152.183 12.3173 151.821 11.9547 151.373 11.72C150.925 11.4747 150.439 11.352 149.917 11.352C149.383 11.352 148.893 11.4747 148.445 11.72C148.007 11.9547 147.655 12.3173 147.389 12.808C147.122 13.2987 146.989 13.896 146.989 14.6C146.989 15.3147 147.117 15.9173 147.373 16.408C147.639 16.8987 147.991 17.2667 148.429 17.512C148.866 17.7467 149.346 17.864 149.869 17.864Z" fill="white"/>
<path d="M9.53923 16.25L15.6912 12.5L9.53923 8.75V16.25ZM21.1664 13.75L23.7625 15.7875C24.0332 15.975 24.0701 16.25 23.8855 16.6L21.4001 20.9375C21.2279 21.2125 20.9941 21.2875 20.6496 21.175L17.5983 19.9375C16.7862 20.525 16.0972 20.9375 15.5189 21.175L15.076 24.45C14.9775 24.8 14.793 25 14.4608 25H9.53923C9.20702 25 9.02247 24.8 8.92404 24.45L8.4811 21.175C7.75517 20.8625 7.07846 20.45 6.40174 19.9375L3.35039 21.175C3.00588 21.2875 2.77211 21.2125 2.59985 20.9375L0.114474 16.6C-0.0700842 16.25 -0.0331724 15.975 0.237512 15.7875L2.83363 13.75C2.77211 13.4625 2.77211 13.05 2.77211 12.5C2.77211 11.95 2.77211 11.5375 2.83363 11.25L0.237512 9.225C-0.0331724 9.025 -0.0700842 8.75 0.114474 8.4L2.59985 4.0625C2.77211 3.7875 3.00588 3.7125 3.35039 3.825L6.40174 5.0625C7.2138 4.475 7.90282 4.0625 8.4811 3.825L8.92404 0.55C9.02247 0.2 9.20702 0 9.53923 0H14.4608C14.793 0 14.9775 0.2 15.076 0.55L15.5189 3.825C16.2448 4.1375 16.9215 4.55 17.5983 5.0625L20.6496 3.825C20.9941 3.7125 21.2279 3.7875 21.4001 4.0625L23.8855 8.4C24.0701 8.75 24.0332 9.025 23.7625 9.225L21.1664 11.25C21.2279 11.5375 21.2279 11.95 21.2279 12.5C21.2279 13.05 21.2279 13.4625 21.1664 13.75Z" fill="#E37C33"/>
</svg>
