<svg width="176" height="225" viewBox="0 0 176 225" fill="none" xmlns="http://www.w3.org/2000/svg">
<circle cx="88" cy="96.999" r="88" fill="#303A46"/>
<path d="M161.007 32.0863C159.609 30.0712 155.35 20.4809 154.162 19.3674C152.974 18.2558 139.916 13.878 137.822 13.8073C135.726 13.7386 134.958 15.3354 134.958 15.3354C134.958 15.3354 134.05 15.196 133.003 15.3354C131.955 15.4748 128.183 21.7989 128.805 22.8418C129.425 23.8846 132.026 25.6915 132.026 25.6915C132.026 25.6915 128.813 28.8889 130.628 30.2775C132.444 31.668 136.983 28.8182 136.983 28.8182C136.983 28.8182 136.983 28.8182 139.987 29.1659C142.99 29.5135 148.088 27.5672 148.088 27.5672C148.088 27.5672 150.881 37.9215 149.764 42.1617C148.646 46.4019 149.764 54.1147 149.764 54.1147L148.437 54.9493C148.437 54.9493 145.783 52.3078 140.127 51.6144C134.471 50.9191 130.909 54.4641 130.909 54.4641C130.909 54.4641 126.859 52.8654 120.224 51.475C113.589 50.0845 107.584 53.4901 107.584 53.4901C107.584 53.4901 111.006 95.8143 111.146 96.0225C111.286 96.2307 120.783 79.2735 121.132 78.3701C121.481 77.4666 130.978 81.2198 141.522 79.7605C152.067 78.3013 171.411 66.6253 170.993 61.6917C170.574 56.7581 162.404 34.1013 161.007 32.0863Z" fill="#FE9E76"/>
<path d="M145.381 53.0383C145.936 53.6443 147.718 56.0052 149.293 58.1727L150.051 57.6262C149.041 56.2357 148.204 55.1092 147.539 54.2392C147.036 53.8934 146.319 53.4603 145.381 53.0383Z" fill="#EE685D"/>
<path d="M149.764 54.1165L149.089 54.5403C150.727 55.8806 152.805 56.7877 155.281 57.2395L155.45 56.323C153.154 55.9047 151.235 55.0738 149.726 53.8562C149.75 54.0216 149.764 54.1165 149.764 54.1165Z" fill="#EE685D"/>
<path d="M148.105 27.6322C148.138 27.7623 148.224 28.0876 148.34 28.5616C149.457 28.0281 151.362 26.818 151.895 24.5761L150.985 24.3623C150.569 26.1041 149.078 27.1321 148.105 27.6322Z" fill="#EE685D"/>
<path d="M131.572 25.277C131.168 24.604 130.406 23.1838 130.384 22.4309C130.397 21.7877 132.805 18.2056 135.027 15.2554L135.011 15.2424C134.977 15.3001 134.958 15.3372 134.958 15.3372C134.958 15.3372 134.493 15.2666 133.843 15.2778C132.401 17.2203 129.418 21.3732 129.448 22.4551C129.461 22.905 129.637 23.4608 129.863 23.998C130.826 24.8587 132.026 25.6934 132.026 25.6934C132.026 25.6934 131.822 25.896 131.547 26.2194C133.15 26.5169 136.26 27.3831 137.138 28.8387C137.291 28.8573 137.6 28.8926 138.21 28.9632C137.465 26.4611 132.771 25.4852 131.572 25.277Z" fill="#EE685D"/>
<path d="M136.451 16.5604C136.426 16.6125 136.279 16.8653 136.124 17.1348C134.654 19.6816 133.29 22.1614 133.264 23.0611C133.23 24.2899 134.136 26.3756 134.176 26.463L135.033 26.0912C134.794 25.5428 134.176 23.9348 134.2 23.0872C134.215 22.5629 135.136 20.717 136.935 17.5996C137.304 16.9601 137.31 16.9471 137.332 16.8597L136.785 16.724L136.451 16.5604Z" fill="#EE685D"/>
<path d="M144.666 23.6727L142.529 24.0055L142.675 24.9256L143.762 24.7565C143.747 25.5112 143.629 26.2901 143.42 26.5373C142.824 26.8682 139.021 26.37 138.302 25.9982C138.289 25.2417 139.339 21.8547 140.373 18.9975L139.494 18.6852C136.884 25.8997 137.359 26.3589 137.56 26.5708C138.108 27.1433 141.083 27.5133 142.494 27.5133C142.495 27.5133 142.499 27.5133 142.501 27.5133C143.59 27.5133 143.921 27.3404 144.087 27.1638C144.761 26.4555 144.709 24.5483 144.692 24.1728L144.666 23.6727Z" fill="#EE685D"/>
<path d="M141.709 25.4386L142.604 25.71C143.45 22.9514 143.823 21.6947 143.98 21.0924C143.674 21.0385 143.368 20.979 143.063 20.9121C142.817 21.7895 142.15 23.9998 141.709 25.4386Z" fill="#EE685D"/>
<path d="M134.893 25.7993L134.151 26.3682C134.532 26.8608 135.306 27.0058 136.085 27.0058C137.011 27.0058 137.945 26.7994 138.237 26.7306L138.016 25.8253C136.92 26.0893 135.224 26.2269 134.893 25.7993Z" fill="#EE685D"/>
<path d="M132.719 63.9465L132.584 64.3927L132.719 63.9465L132.584 64.3927L132.45 64.8388C132.571 64.876 133.991 65.2831 136.137 65.2831C138.588 65.2831 141.984 64.7515 145.479 62.5319L144.974 61.7474C138.793 65.6735 132.778 63.9651 132.719 63.9465Z" fill="#EE685D"/>
<path d="M102.798 52.9658C97.1253 53.28 99.3313 41.3605 99.3313 41.3605L78.2554 37.1035C78.2554 37.1035 76.946 45.5877 74.3272 48.1623C71.7083 50.737 51.8952 54.8471 44.4888 59.5539C37.0825 64.2589 32.3547 78.2176 32.3547 78.2176L49.0597 87.7837L53.3148 145.812C53.3148 145.812 64.0311 149.419 81.5243 146.597C99.0175 143.775 112.099 137.657 112.099 137.657L106.831 112.407L108.966 85.3875L112.941 80.8238L121.134 78.37L131.011 54.5329C131.008 54.5348 108.473 52.6517 102.798 52.9658Z" fill="#FE9E76"/>
<path d="M125.544 52.7576C125.544 52.7576 116.806 47.6214 102.8 52.9658C102.681 53.0123 102.55 52.9714 102.43 52.9658C100.856 55.2132 98.8307 57.1837 96.7592 58.8326C90.2083 63.954 80.383 63.2569 74.301 56.9699C72.392 54.8972 71.3852 52.4379 71.1834 49.7852C64.6401 52.317 50.4905 55.7393 44.4888 59.552C37.0825 64.257 32.3547 78.2157 32.3547 78.2157L49.0597 87.7818L53.3148 145.81C53.3148 145.81 64.0311 149.419 81.5243 146.595C99.0175 143.771 112.099 137.655 112.099 137.655L108.966 112.747L117.527 86.1013L121.393 80.6416L125.17 79.121C125.17 79.121 122.202 75.5407 122.383 66.3241C122.576 56.3676 125.544 52.7576 125.544 52.7576Z" fill="#F9C164"/>
<path d="M77.6875 14.2814C75.827 18.8581 73.2269 31.2237 77.6763 40.6448C81.0815 47.8556 95.9615 49.194 100.783 42.3978C105.624 35.5718 107.729 17.8784 105.813 13.7572C102.68 7.02409 81.5728 4.7283 77.6875 14.2814Z" fill="#FE9E76"/>
<path d="M73.4566 22.6076C71.7848 22.7098 70.5426 24.6041 70.679 26.8404C70.8172 29.0767 72.2836 30.8055 73.9535 30.7032C75.6253 30.601 76.8675 28.7067 76.7311 26.4704C76.5948 24.2341 75.1284 22.5053 73.4566 22.6076Z" fill="#FE9E76"/>
<path d="M107.716 25.9964C105.972 26.0819 104.391 27.9 104.19 30.0582C103.988 32.2164 105.24 33.8969 106.984 33.8114C108.729 33.7259 110.309 31.9078 110.511 29.7496C110.713 27.5914 109.461 25.9109 107.716 25.9964Z" fill="#FE9E76"/>
<path d="M86.1474 27.7233C86.0558 27.5691 86.0428 27.4129 86.1025 27.214C86.4985 25.9257 89.4966 24.275 90.6173 23.7489L90.1989 22.8678C89.7469 23.0797 85.7588 25 85.1648 26.9296C85.0247 27.3869 85.0714 27.833 85.3031 28.2215C86.0764 29.5209 87.8827 29.8964 89.2425 29.9857C90.1541 30.0452 90.8658 29.9764 90.9368 29.9689L90.8359 28.9986C89.8067 29.1027 86.9543 29.0785 86.1474 27.7233Z" fill="#EE685D"/>
<path d="M92.1098 7.02589C87.9761 6.52583 80.3923 8.59669 77.6894 12.1491C76.9665 13.099 75.3171 24.5965 75.3171 24.5965C75.3171 24.5965 74.9827 28.6193 75.6757 28.7308C76.3687 28.8424 76.8021 24.5724 77.1626 22.8157C77.7043 20.1667 79.4788 14.101 80.7397 12.6064C83.7695 9.01867 103.355 12.5711 104.027 13.8723C104.702 15.1736 104.173 25.8959 104.173 25.8959C104.173 25.8959 103.738 30.3295 104.341 30.2347C104.944 30.1418 106.101 26.6042 106.101 26.6042C106.101 26.6042 107.914 15.6216 106.633 13.2292C105.353 10.8386 96.2435 7.52594 92.1098 7.02589Z" fill="#56304C"/>
<path d="M91.1384 10.2624C91.0394 10.2234 79.8468 11.8983 79.6768 11.9206C79.5068 11.9429 77.0468 18.7001 77.0412 18.8005C77.0337 18.9009 77.1028 21.9458 77.1028 21.9458C77.1028 21.9458 78.5785 21.4736 79.3275 19.7857C80.0765 18.0959 81.0497 12.9523 82.5347 12.4076C87.0682 10.7476 98.0778 12.6288 101.866 14.7294C103.076 15.4005 102.385 22.5946 102.837 23.3586C103.291 24.1226 104.548 24.6041 104.548 24.6041C104.548 24.6041 106.091 14.6476 105.267 13.6903C104.442 12.7348 91.2356 10.3014 91.1384 10.2624Z" fill="#56304C"/>
<path d="M86.4929 18.4546C85.0827 18.12 83.3212 18.3412 81.9557 18.7855C81.2926 19.0012 81.5224 19.8842 82.1967 19.8172C82.9009 19.7466 83.6033 19.6536 84.3093 19.6202C84.9668 19.5886 85.6337 19.6648 86.2875 19.6053C86.8871 19.5514 87.2084 18.6238 86.4929 18.4546Z" fill="#49263E"/>
<path d="M99.8561 20.7021C98.3879 20.0998 96.8356 19.518 95.2236 19.6537C94.5586 19.7094 94.4708 20.7114 95.1807 20.7188C96.703 20.7337 98.0629 21.4085 99.4825 21.8621C100.245 22.1075 100.575 20.9977 99.8561 20.7021Z" fill="#49263E"/>
<path d="M83.7938 22.2395C82.4246 21.4401 81.4664 23.1113 81.4664 23.1113C81.4664 23.1113 82.1332 24.4683 84.1674 24.4088C84.1674 24.4088 85.0192 22.9552 83.7938 22.2395Z" fill="#49263E"/>
<path d="M97.1925 23.4478C95.7822 23.6188 95.8588 25.5763 95.8588 25.5763C97.736 26.357 98.8475 25.3272 98.8475 25.3272C98.8475 25.3272 99.1053 23.2173 97.1925 23.4478Z" fill="#49263E"/>
<path d="M83.0391 31.7238L82.6095 32.7722C82.6095 32.7722 83.5565 36.0253 88.8951 36.4938C94.2336 36.9622 96.4677 33.486 96.4677 33.486L96.0866 32.5751C89.5731 34.1441 83.0391 31.7238 83.0391 31.7238Z" fill="#49263E"/>
<path d="M83.6872 31.9375C83.4836 32.287 83.153 32.8837 82.9251 33.4339C83.5154 34.4117 85.0882 36.161 88.895 36.4938C92.2573 36.7893 94.3867 35.5197 95.5019 34.54C95.4814 33.9712 95.4552 33.2313 95.4253 32.7201C90.3614 33.737 85.4188 32.4692 83.6872 31.9375Z" fill="white"/>
<path opacity="0.22" d="M83.6872 31.9375C83.4836 32.287 83.153 32.8837 82.9251 33.4339C83.0391 33.6217 83.1904 33.8392 83.3865 34.0697C84.0235 33.1904 84.8397 32.9376 86.0987 33.3094C87.382 33.6886 88.5102 34.04 89.872 33.8503C90.8377 33.7165 91.7978 33.5027 92.7691 33.4228C94.228 33.3001 94.6837 34.224 94.5268 35.265C94.9116 35.0233 95.2367 34.7742 95.5019 34.54C95.4814 33.9712 95.4552 33.2313 95.4253 32.7201C90.3614 33.737 85.4188 32.4692 83.6872 31.9375Z" fill="#CCB6AE"/>
<path opacity="0.55" d="M89.1902 35.0699C89.1753 35.068 89.1603 35.068 89.1435 35.0661C85.8242 34.6423 83.861 33.0789 83.323 32.5938C83.2502 32.7332 83.1755 32.8819 83.1045 33.0306C83.8274 33.6682 85.8186 35.1424 89.1099 35.5513C89.1267 35.5532 89.1416 35.5532 89.1585 35.555C92.2163 35.7539 94.4802 34.7892 95.4926 34.2463C95.4851 34.0605 95.4777 33.8671 95.4702 33.6738C94.6539 34.1497 92.3452 35.2762 89.1902 35.0699Z" fill="#CCB6AE"/>
<path d="M84.0254 25.3532C83.1157 24.8662 81.9875 25.0168 81.16 24.3066C80.6295 23.8512 79.9551 24.4739 80.3661 25.0372C80.7303 25.5373 81.2459 25.8458 81.8287 26.0429C82.3835 26.2306 83.1026 26.4574 83.6892 26.4221C84.2066 26.3924 84.5858 25.6544 84.0254 25.3532Z" fill="#FFAC8F"/>
<path d="M99.2697 26.0484C98.2311 26.7287 97.0188 26.4294 95.8719 26.6897C95.3433 26.8087 95.2779 27.6322 95.8289 27.7753C96.5443 27.9631 97.3569 27.8478 98.0854 27.7456C98.7747 27.6489 99.3948 27.4203 99.9122 26.9462C100.364 26.5335 99.8151 25.6914 99.2697 26.0484Z" fill="#FFAC8F"/>
<path d="M90.6285 38.0515C89.5377 38.0162 88.4412 38.1594 87.3597 37.953C86.7675 37.8396 86.4481 38.5051 86.9188 38.8881C87.3765 39.2617 88.0358 39.2561 88.6 39.2859C89.3098 39.323 90.0401 39.3379 90.7406 39.2152C91.4037 39.0981 91.2898 38.0738 90.6285 38.0515Z" fill="#EE685D"/>
<path d="M73.7312 24.2545C73.5594 24.8587 73.4286 25.5298 73.3745 26.2102C73.2885 26.093 73.2082 25.9722 73.1428 25.8439C72.9654 25.4852 72.8365 25.1152 72.4891 24.8829C72.25 24.723 71.9081 25.0167 72.0669 25.2695C72.2911 25.6264 72.4031 26.0205 72.6067 26.3849C72.8047 26.7344 73.0812 27.0485 73.3576 27.3441C73.3913 27.9036 73.4884 28.4483 73.6733 28.9447C73.7873 29.2514 74.329 29.283 74.3122 28.8852C74.2804 28.1267 74.1235 27.3869 74.1235 26.6247C74.1235 25.8644 74.2113 25.1134 74.3271 24.3624C74.3813 24.0185 73.8246 23.9292 73.7312 24.2545Z" fill="#EE685D"/>
<path d="M108.964 28.6361C108.467 28.8294 108.006 29.112 107.58 29.4336C107.769 28.7439 108.004 28.1491 107.898 27.4297C107.847 27.0913 107.337 27.1657 107.315 27.4854C107.249 28.374 106.816 29.2161 106.616 30.0842C106.448 30.8166 106.344 31.5602 106.302 32.3112C106.274 32.8299 107.07 32.8596 107.111 32.3428C107.15 31.8372 107.206 31.3371 107.285 30.8389C107.756 30.1084 108.628 29.6771 109.396 29.3221C109.943 29.0655 109.34 28.3145 108.964 28.6361Z" fill="#EE685D"/>
<path d="M107.5 9.4555C107.354 9.39044 107.203 9.32909 107.048 9.29563C106.99 8.68962 106.9 8.08732 106.782 7.49246C106.758 7.36791 106.678 7.23779 106.553 7.10209C106.439 6.82882 105.731 6.42915 104.935 6.05179C104.261 5.7209 103.435 5.37699 102.514 5.02937C102.469 5.01264 102.443 5.00335 102.443 5.00335C102.443 5.00335 102.609 4.02741 102.221 3.92331C101.831 3.81921 99.5517 3.51248 97.0692 2.64064C94.5867 1.7688 93.1708 2.11642 93.1708 2.11642C93.1708 2.11642 93.4734 0.670168 93.494 0.354149C93.5145 0.0399887 91.7549 -0.352247 88.1143 0.59581C84.4737 1.54201 84.158 2.22424 84.158 2.22424C84.158 2.22424 84.6064 1.33009 84.427 1.04196C84.2477 0.75382 82.9831 1.56246 80.3381 3.79876C77.6931 6.0332 78.5767 9.64325 78.5767 9.64325C78.5953 11.1843 78.9895 12.3108 78.9895 12.3108C78.9895 12.3108 97.1346 10.7326 99.4303 11.2698C101.726 11.8071 106.867 15.0583 106.867 15.0583C107.096 14.7795 107.292 14.5007 107.47 14.1921C107.731 13.7329 108.15 13.3667 108.43 12.9168C108.695 12.493 108.869 12.0153 108.94 11.5208C108.979 11.2457 108.985 10.9612 108.901 10.6973C108.705 10.0838 108.086 9.71761 107.5 9.4555ZM107.56 11.2029C107.489 11.3795 107.322 11.4966 107.165 11.6044C107.081 11.1806 107.096 10.7475 107.098 10.3143C107.139 10.3385 107.18 10.3589 107.22 10.3868C107.481 10.569 107.679 10.9073 107.56 11.2029Z" fill="#56304C"/>
<path d="M108.869 10.6249C108.764 11.2681 108.458 11.9057 108.019 12.4634C107.545 13.0619 106.485 14.0992 105.609 13.9078C104.965 14.3223 104.108 14.4208 103.465 13.9171C103.101 13.6326 103.041 13.3278 102.893 12.9244C102.74 12.508 102.949 12.7366 102.632 12.5879C102.389 12.4745 101.999 12.5136 101.726 12.4652C101.143 12.363 100.37 12.2868 99.8412 12.0061C99.6469 11.9038 99.5124 11.7402 99.335 11.6194C98.812 11.2643 98.3805 11.1361 97.7416 11.0989C97.0785 11.0617 96.5387 11.1082 95.9316 10.7978C95.1153 10.3795 94.4952 9.96124 93.5537 9.80323C91.7811 9.50394 89.9804 9.83483 88.1984 9.73259C86.4575 9.63406 84.9519 8.92953 83.1867 9.27715C81.8885 9.53368 80.4166 10.2233 79.1109 9.64336C78.8774 9.53926 78.6757 9.40541 78.5057 9.25112C78.5412 9.49836 78.5767 9.64336 78.5767 9.64336C78.5841 10.1843 78.6364 10.6732 78.7018 11.0803C78.3189 11.4205 77.977 11.7774 77.6913 12.1511C76.9684 13.101 75.319 24.5985 75.319 24.5985C75.319 24.5985 74.9846 28.6212 75.6776 28.7328C76.3706 28.8443 76.804 24.5743 77.1645 22.8176C77.2243 22.5258 77.299 22.1912 77.3868 21.8268C77.8519 21.6 78.7821 21.0182 79.3276 19.7857C80.0766 18.0959 81.0498 12.9523 82.5348 12.4076C87.0683 10.7476 98.0779 12.6288 101.866 14.7294C103.076 15.4005 102.385 22.5946 102.837 23.3586C103.147 23.8828 103.837 24.2732 104.238 24.4665C104.205 25.3402 104.177 25.896 104.177 25.896C104.177 25.896 103.741 30.3296 104.345 30.2348C104.948 30.1418 106.104 26.6043 106.104 26.6043C106.104 26.6043 107.408 18.7057 107.023 14.8465C107.186 14.6346 107.335 14.4208 107.47 14.1866C107.731 13.7274 108.15 13.3612 108.43 12.9114C108.695 12.4875 108.869 12.0098 108.94 11.5153C108.979 11.2402 108.985 10.9558 108.901 10.6918C108.889 10.6695 108.878 10.649 108.869 10.6249Z" fill="#49263E"/>
<path opacity="0.33" d="M104.22 5.72095C103.676 6.15966 103.112 6.63926 102.486 6.62253C101.789 6.60394 101.173 6.03139 100.484 5.92357C99.7553 5.80832 99.1781 6.07043 98.528 6.34927C97.355 6.85118 96.8413 6.27119 96.0511 5.45884C95.0649 4.44572 93.875 3.84343 92.4554 3.70587C91.0469 3.57016 89.6553 3.94009 88.4655 4.68366C87.9537 5.0034 87.3802 5.51647 86.704 5.36032C86.3061 5.26923 85.9438 4.90302 85.6131 4.6911C85.0042 4.30258 84.3822 4.04419 83.6574 3.95124C82.2471 3.77279 80.5211 4.28585 79.1594 5.22647C78.7111 6.03511 78.5225 6.88092 78.4608 7.6152C79.152 6.65413 80.3306 5.92171 81.3356 5.50903C82.2957 5.11308 83.3679 5.00526 84.3392 5.41423C84.9407 5.6689 85.4058 6.14293 86.0035 6.40318C87.1673 6.91253 88.062 6.38645 89.0483 5.76556C90.3128 4.96994 91.8091 4.66136 93.2642 5.09263C94.6278 5.49788 95.1751 6.60952 96.2622 7.37354C97.2167 8.04462 98.0928 7.78808 99.0809 7.3754C100.028 6.97945 100.374 7.08541 101.274 7.47021C101.823 7.70443 102.357 7.88103 102.964 7.76392C103.669 7.62636 104.614 6.70061 105.458 6.31023C105.294 6.22472 105.118 6.13735 104.937 6.05184C104.711 5.94216 104.472 5.83249 104.22 5.72095Z" fill="white"/>
<path d="M87.3709 46.4056C81.4402 45.6267 78.6289 42.145 77.5848 40.431C77.469 40.9199 77.3382 41.4367 77.1925 41.9646C78.741 43.8924 81.8287 46.6176 87.2494 47.3295C88.2712 47.4634 89.2351 47.5229 90.141 47.5229C94.215 47.5229 97.142 46.322 98.9278 45.2717C98.9427 44.8702 98.9539 44.6322 98.9819 44.266C97.0785 45.5003 93.1783 47.1678 87.3709 46.4056Z" fill="#EE685D"/>
<path d="M79.0754 145.636C64.1095 147.853 54.0339 145.095 54.0339 145.095C53.8471 152.339 53.3876 220.759 55.9336 223.452C58.4814 226.146 86.1642 224.83 88.8708 223.228C91.5775 221.625 88.7868 185.562 88.7868 185.562C88.7868 185.562 98.9072 220.705 101.455 222.765C104.003 224.824 129.863 216.457 132.887 214.398C135.911 212.338 111.193 137.616 111.193 137.616C111.193 137.616 94.0413 143.418 79.0754 145.636Z" fill="#80C7A7"/>
<path d="M84.5634 169.848C84.3336 169.523 83.8573 168.843 77.8911 168.318C75.0612 168.069 72.3042 167.973 72.2761 167.973L72.235 169.136C77.2187 169.307 82.9869 169.889 83.6033 170.514C84.1749 171.41 87.1206 183.023 89.2033 191.581C88.9736 187.977 88.7868 185.562 88.7868 185.562C88.7868 185.562 89.1324 186.759 89.7095 188.72C87.9985 181.755 85.2415 170.811 84.5634 169.848Z" fill="#62A083"/>
<path d="M123.099 198.658C122.664 198.5 121.037 197.117 118.334 185.96C117.573 182.822 116.893 179.58 116.393 177.037L116.501 177.273L122.912 174.382C122.796 174.009 122.682 173.633 122.566 173.259L116.214 176.122C115.859 174.282 115.62 172.932 115.547 172.451C115.537 172.391 115.577 172.265 115.715 172.081C116.535 170.991 119.329 169.662 121.22 168.908C121.104 168.534 120.988 168.162 120.872 167.79C118.812 168.593 115.801 170.027 114.781 171.382C114.461 171.806 114.331 172.226 114.392 172.627C114.506 173.36 115.618 179.706 117.198 186.229C119.94 197.55 121.651 199.366 122.697 199.747C123.325 199.976 124.051 200.071 124.827 200.071C126.554 200.071 128.518 199.601 130.13 199.093C130.031 198.721 129.93 198.348 129.825 197.966C127.657 198.66 124.842 199.29 123.099 198.658Z" fill="#62A083"/>
<path d="M59.1053 178.801C58.982 178.34 58.6645 177.97 58.1601 177.7C57.129 177.148 55.3676 177.1 53.8956 177.189C53.8975 177.574 53.8994 177.961 53.9012 178.347C55.2424 178.264 56.8451 178.291 57.6371 178.743C57.921 178.905 57.9603 179.052 57.9733 179.102C58.0817 179.503 58.2255 181.379 58.3637 184.073L53.9405 184.283C53.9442 184.671 53.9479 185.06 53.9517 185.448L58.4198 185.236C58.5449 187.949 58.6589 191.293 58.7224 194.736C58.9166 205.107 58.558 209.564 58.1825 210.284C57.5717 210.579 56.0923 210.615 54.5083 210.531C54.5251 210.927 54.5438 211.317 54.5606 211.7C54.9641 211.719 55.3713 211.732 55.7692 211.732C57.0412 211.732 58.2199 211.615 58.8382 211.256C59.2678 211.007 60.1644 210.486 59.901 195.23C59.7759 187.705 59.3948 179.877 59.1053 178.801Z" fill="#62A083"/>
<path d="M80.1851 151.337C65.4527 152.664 57.5457 151.278 53.9612 150.236C53.9574 150.629 53.9537 151.038 53.95 151.463C56.6398 152.214 61.3171 153.055 68.8075 153.055C72.0764 153.055 75.8851 152.895 80.2915 152.497C96.6098 151.027 108.15 146.117 113.154 143.596C113.027 143.208 112.906 142.832 112.79 142.477C107.986 144.916 96.5239 149.865 80.1851 151.337Z" fill="#62A083"/>
<path d="M34.359 77.1672C34.359 77.1672 29.4911 85.2294 25.7179 95.6228C21.9428 106.014 23.2018 109.647 23.2018 109.647C23.2018 109.647 22.5723 120.791 24.7111 131.058C26.8499 141.325 28.7365 149.84 28.7365 149.84C28.7365 149.84 27.4775 162.111 27.8548 164.74C28.2321 167.368 32.5097 172.003 32.5097 172.003C32.5097 172.003 39.3034 174.256 40.8145 173.88C42.3238 173.505 45.9738 167.368 45.9738 167.368C45.9738 167.368 46.3268 169.766 47.9631 169.766C49.5994 169.766 49.8479 166.72 49.8105 166.22C49.7152 164.955 49.5639 163.572 48.0173 160.964C46.4706 158.356 39.1222 152.112 39.1222 152.112C39.1222 152.112 38.0388 141.884 38.3003 139.722C38.5599 137.562 42.1632 118.105 41.5318 115.896C40.9042 113.697 40.1234 109.736 40.1234 109.736C40.1234 109.736 49.1997 91.7227 49.9244 87.7706C49.9973 87.3877 34.359 77.1672 34.359 77.1672Z" fill="#FE9E76"/>
<path d="M124.339 58.169L124.954 58.8699C124.997 58.8327 127.828 56.9459 130.907 54.4642C130.907 54.4642 130.505 54.3062 129.749 54.0459C126.934 55.9234 124.475 58.0501 124.339 58.169Z" fill="#EE685D"/>
<path d="M109.652 83.0117C109.652 83.0117 103.14 88.9771 100.304 91.468C97.4689 93.959 63.1867 97.4501 58.0649 94.355C52.943 91.2598 52.1417 83.0117 52.1417 83.0117L49.4369 92.9347L53.3147 145.812C53.3147 145.812 64.031 149.42 81.5242 146.597C99.0174 143.773 112.099 137.657 112.099 137.657L108.966 112.749L117.527 86.1032L121.393 80.6435L125.17 79.1229C125.17 79.1229 124.812 78.6879 124.35 77.7361L109.652 83.0117ZM70.5669 119.787C75.3358 114.928 96.8095 106.726 98.6662 108.277C100.521 109.829 68.8447 121.542 70.5669 119.787ZM65.3442 112.706C71.2487 106.455 100.706 101.2 101.799 102.828C102.89 104.458 63.5473 114.608 65.3442 112.706Z" fill="#EFB560"/>
<path d="M100.172 58.9181C96.1296 63.7085 90.7033 66.0508 84.0273 65.8686C70.2756 65.4912 67.4344 54.4622 66.9021 51.2704C66.6069 51.3652 66.3081 51.4619 66.0036 51.5585C66.2614 53.0308 66.9282 55.7709 68.6 58.524C70.8154 62.173 75.2835 66.5508 84.0011 66.7888C84.2458 66.7962 84.4868 66.7981 84.7259 66.7981C92.9784 66.7981 98.0592 62.8664 100.889 59.5111C103.581 56.3211 104.761 53.1293 105.075 52.1738C104.703 52.2909 104.326 52.4155 103.947 52.5475C103.439 53.8636 102.286 56.4103 100.172 58.9181Z" fill="#EAAF59"/>
<path d="M34.3832 73.2374C34.2487 73.5293 34.1217 73.8137 34.0002 74.0888C36.4173 75.1967 48.077 80.7271 51.0507 85.5678L51.8483 85.0826C48.6934 79.9463 36.875 74.3714 34.3832 73.2374Z" fill="#EAAF59"/>
<path d="M40.4129 109.163C39.2791 106.447 38.0799 104.033 38.0631 103.997L37.2244 104.41C37.2486 104.458 39.4902 108.977 40.7174 112.558C40.3812 111.035 40.1253 109.74 40.1253 109.74C40.1253 109.74 40.2299 109.533 40.4129 109.163Z" fill="#EE685D"/>
<path d="M36.6285 150.173V150.753L36.5669 151.099C36.8695 151.158 38.121 151.56 39.1091 152.001C39.0905 151.826 39.0494 151.452 38.9989 150.941C37.8931 150.489 36.8153 150.173 36.6285 150.173Z" fill="#EE685D"/>
<path d="M30.0964 166.67C30.1581 166.841 31.2396 169.804 32.6219 172.036C32.8367 172.107 33.3616 172.276 34.0546 172.488C32.4612 170.423 30.9949 166.402 30.9781 166.355L30.0964 166.67Z" fill="#EE685D"/>
<path d="M33.3259 166.37C33.5501 166.941 35.1565 170.991 36.6695 173.235C37.1645 173.365 37.6595 173.486 38.1321 173.592C37.002 172.516 35.1621 168.497 34.1983 166.034L33.3259 166.37Z" fill="#EE685D"/>
<path d="M45.2452 164.584C45.0267 164.411 44.7633 164.348 44.498 164.409C43.4632 164.647 41.5075 167.183 40.4409 168.664L39.1165 164.935L38.2349 165.246L40.1682 170.687L40.6893 169.934C42.1276 167.852 44.046 165.522 44.683 165.324C44.9632 165.55 45.2191 166.945 45.2844 168.486C45.7047 167.82 45.9756 167.368 45.9756 167.368C45.9756 167.368 46.0316 167.751 46.2035 168.211C46.14 166.946 45.9289 165.125 45.2452 164.584Z" fill="#EE685D"/>
<path d="M40.8164 173.88C40.8912 173.862 40.9733 173.825 41.0593 173.778C40.8519 173.834 40.6408 173.88 40.4316 173.921C40.5811 173.918 40.7118 173.906 40.8164 173.88Z" fill="#CA7452"/>
<path d="M44.625 165.236C44.6326 165.259 44.6629 165.272 44.6629 165.272C44.6553 165.261 44.6439 165.248 44.6326 165.234L44.625 165.236Z" fill="#EE685D"/>
<path d="M40.5511 162.368V163.299C40.5511 163.299 40.5381 163.29 40.5325 163.288C40.9845 163.409 44.1637 164.721 44.6158 165.234L45.4489 164.943C45.1238 163.968 40.9247 162.368 40.5511 162.368Z" fill="#EE685D"/>
<path d="M112.614 87.2093C113.942 86.4564 116.849 84.8782 119.118 83.8539L120.134 82.4188C117.245 83.5193 112.397 86.2613 112.151 86.4007L112.614 87.2093Z" fill="#DDA357"/>
<path d="M49.9917 91.1688C49.7862 91.4514 49.5695 91.9161 49.3939 92.3399L49.4742 93.4423L49.9169 93.5929C50.0514 93.2025 50.4624 92.1039 50.7556 91.7079C51.161 91.1595 52.1491 85.7184 52.702 82.5229L51.7793 82.3649C51.1049 86.2649 50.2513 90.6613 49.9917 91.1688Z" fill="#EAAF59"/>
<path d="M136.834 53.4361C133.811 54.0049 131.107 55.5795 128.807 57.5666C128.366 57.9477 128.99 58.7248 129.457 58.3623C131.475 56.8026 133.679 55.44 136.171 54.782C138.748 54.1016 142.142 54.0774 144.378 55.7356C144.933 56.1464 145.658 55.4493 145.137 54.94C143.155 52.9993 139.37 52.9602 136.834 53.4361Z" fill="#FFAC8F"/>
<path d="M150.714 18.2371C148.732 17.4973 146.67 16.9136 144.668 16.2183C142.663 15.5231 140.646 14.8725 138.55 14.51C137.898 14.3966 137.641 15.3762 138.3 15.5138C140.383 15.9451 142.395 16.5957 144.397 17.3039C146.369 18.0029 148.392 18.9008 150.468 19.2224C151.127 19.3265 151.325 18.4658 150.714 18.2371Z" fill="#FFAC8F"/>
<path d="M134.566 16.3931C133.802 17.9546 132.825 19.3209 131.927 20.7951C131.613 21.31 132.358 21.8286 132.767 21.4067C133.961 20.1779 134.844 18.464 135.479 16.8932C135.724 16.289 134.867 15.7778 134.566 16.3931Z" fill="#FFAC8F"/>
<path d="M137.814 18.2372C137.37 18.9993 136.802 19.6667 136.393 20.4567C136.008 21.2022 135.704 21.9792 135.509 22.7934C135.354 23.444 136.292 23.6504 136.505 23.0388C136.783 22.2432 137.082 21.4587 137.484 20.7151C137.856 20.0292 138.362 19.4213 138.709 18.7261C139.002 18.1424 138.147 17.6702 137.814 18.2372Z" fill="#FFAC8F"/>
<path d="M141.167 19.1778C140.497 20.4977 139.925 22.0741 139.667 23.5296C139.57 24.0761 140.411 24.5 140.646 23.9107C141.208 22.5072 141.696 20.9996 142.12 19.5496C142.281 18.9919 141.431 18.6573 141.167 19.1778Z" fill="#FFAC8F"/>
<path d="M35.1397 106.912C36.6714 109.306 37.5176 112.082 37.8912 114.883C38.2797 117.807 38.078 120.726 38.1826 123.659C38.2069 124.351 39.1801 124.291 39.238 123.633C39.7442 117.852 39.3463 111.325 35.9915 106.388C35.6329 105.856 34.7904 106.367 35.1397 106.912Z" fill="#FFAC8F"/>
<path d="M34.7475 79.8683C32.5321 83.7256 30.5203 87.7353 28.9569 91.9012C28.7495 92.4552 29.6947 92.827 29.9319 92.2823C31.6953 88.2317 33.5277 84.2424 35.6683 80.3721C35.9952 79.7809 35.0818 79.2846 34.7475 79.8683Z" fill="#FFAC8F"/>
<path d="M36.1485 161.968C33.8826 161.89 31.4861 162.297 29.2763 162.779C28.729 162.898 28.8691 163.825 29.4351 163.758C31.7158 163.489 34.0452 163.338 36.311 162.97C36.9124 162.874 36.6958 161.987 36.1485 161.968Z" fill="#FFAC8F"/>
<path d="M88.4393 40.1708C87.3447 40.1726 86.4631 40.8567 86.4687 41.6988C86.4761 42.5409 87.369 43.2231 88.4636 43.2231C89.5582 43.2213 90.4399 42.5372 90.4343 41.6951C90.4287 40.8511 89.5358 40.1689 88.4393 40.1708Z" fill="#FFAC8F"/>
</svg>
